<svg width="15" height="15" viewBox="0 0 10 21" fill="none" xmlns="http://www.w3.org/2000/svg">
<path d="M7.26418 9.57305L3.51338 8.27695C3.07926 8.1293 2.77711 7.64941 2.77711 7.11621C2.77711 6.44766 3.23554 5.90625 3.80164 5.90625H6.10421C6.52792 5.90625 6.94467 6.05801 7.29197 6.33691C7.50382 6.50508 7.7886 6.46406 7.9692 6.25488L9.17779 4.86035C9.42437 4.57734 9.38964 4.10566 9.11528 3.85547C8.2644 3.06797 7.20167 2.6291 6.11116 2.625V0.65625C6.11116 0.295312 5.8611 0 5.55548 0H4.44413C4.13851 0 3.88846 0.295312 3.88846 0.65625V2.625H3.80164C1.58935 2.625 -0.188806 4.86856 0.0160996 7.53047C0.161964 9.42129 1.38445 10.9594 2.92645 11.4926L6.48624 12.723C6.92036 12.8748 7.22251 13.3506 7.22251 13.8838C7.22251 14.5523 6.76408 15.0938 6.19798 15.0938H3.89541C3.4717 15.0938 3.05495 14.942 2.70765 14.6631C2.4958 14.4949 2.21102 14.5359 2.03042 14.7451L0.821828 16.1396C0.575247 16.4227 0.609977 16.8943 0.884342 17.1445C1.73522 17.932 2.79795 18.3709 3.88846 18.375V20.3438C3.88846 20.7047 4.13851 21 4.44413 21H5.55548C5.8611 21 6.11116 20.7047 6.11116 20.3438V18.3668C7.72956 18.3299 9.24725 17.1938 9.78209 15.385C10.5288 12.8584 9.27503 10.2662 7.26418 9.57305Z" fill="#8FEBF1"/>
</svg>
