<svg width="15" height="15" viewBox="0 0 21 16" fill="none" xmlns="http://www.w3.org/2000/svg">
<path d="M3.9375 15.6718H7.38281C7.65352 15.6718 7.875 15.4514 7.875 15.182V13.5496C7.875 13.2802 7.65352 13.0598 7.38281 13.0598H3.9375C3.21152 13.0598 2.625 12.4762 2.625 11.7538V3.91794C2.625 3.19557 3.21152 2.61196 3.9375 2.61196H7.38281C7.65352 2.61196 7.875 2.39158 7.875 2.12222V0.489743C7.875 0.220384 7.65352 0 7.38281 0H3.9375C1.76367 0 0 1.75491 0 3.91794V11.7538C0 13.9169 1.76367 15.6718 3.9375 15.6718ZM5.86523 7.46858L12.7559 0.612179C13.3711 0 14.4375 0.428525 14.4375 1.30598V5.22392H20.0156C20.5611 5.22392 21 5.66061 21 6.20341V10.1214C21 10.6641 20.5611 11.1008 20.0156 11.1008H14.4375V15.0188C14.4375 15.8962 13.3711 16.3248 12.7559 15.7126L5.86523 8.85618C5.48379 8.47255 5.48379 7.85221 5.86523 7.46858Z" fill="#8FEBF1"/>
</svg>
