<svg width="14" height="14" viewBox="0 0 14 14" fill="none" xmlns="http://www.w3.org/2000/svg">
<path d="M11.3163 8.16667C11.2387 8.34261 11.2155 8.53778 11.2498 8.72701C11.2841 8.91624 11.3744 9.09085 11.5088 9.22833L11.5438 9.26333C11.6523 9.37168 11.7384 9.50035 11.7971 9.64199C11.8558 9.78362 11.886 9.93543 11.886 10.0887C11.886 10.2421 11.8558 10.3939 11.7971 10.5355C11.7384 10.6771 11.6523 10.8058 11.5438 10.9142C11.4355 11.0226 11.3068 11.1087 11.1652 11.1674C11.0236 11.2261 10.8717 11.2563 10.7184 11.2563C10.5651 11.2563 10.4133 11.2261 10.2717 11.1674C10.13 11.1087 10.0014 11.0226 9.89301 10.9142L9.85801 10.8792C9.72053 10.7447 9.54591 10.6545 9.35668 10.6202C9.16745 10.5859 8.97228 10.609 8.79634 10.6867C8.62381 10.7606 8.47666 10.8834 8.37302 11.0399C8.26938 11.1964 8.21376 11.3798 8.21301 11.5675V11.6667C8.21301 11.9761 8.09009 12.2728 7.8713 12.4916C7.65251 12.7104 7.35576 12.8333 7.04634 12.8333C6.73692 12.8333 6.44018 12.7104 6.22138 12.4916C6.00259 12.2728 5.87967 11.9761 5.87967 11.6667V11.6142C5.87516 11.4211 5.81266 11.2338 5.70031 11.0767C5.58795 10.9197 5.43094 10.8 5.24967 10.7333C5.07373 10.6557 4.87856 10.6325 4.68933 10.6668C4.5001 10.7011 4.32549 10.7914 4.18801 10.9258L4.15301 10.9608C4.04466 11.0693 3.91599 11.1554 3.77435 11.2141C3.63272 11.2728 3.48091 11.303 3.32759 11.303C3.17427 11.303 3.02246 11.2728 2.88083 11.2141C2.7392 11.1554 2.61053 11.0693 2.50217 10.9608C2.3937 10.8525 2.30765 10.7238 2.24894 10.5822C2.19023 10.4405 2.16001 10.2887 2.16001 10.1354C2.16001 9.9821 2.19023 9.83028 2.24894 9.68865C2.30765 9.54702 2.3937 9.41835 2.50217 9.31L2.53717 9.275C2.67165 9.13752 2.76187 8.96291 2.79618 8.77368C2.83049 8.58445 2.80732 8.38928 2.72967 8.21333C2.65573 8.0408 2.53295 7.89366 2.37645 7.79001C2.21994 7.68637 2.03655 7.63075 1.84884 7.63H1.74967C1.44026 7.63 1.14351 7.50708 0.924717 7.28829C0.705924 7.0695 0.583008 6.77275 0.583008 6.46333C0.583008 6.15391 0.705924 5.85717 0.924717 5.63838C1.14351 5.41958 1.44026 5.29667 1.74967 5.29667H1.80217C1.99525 5.29215 2.18251 5.22965 2.3396 5.1173C2.49669 5.00494 2.61634 4.84793 2.68301 4.66667C2.76066 4.49072 2.78382 4.29555 2.74951 4.10632C2.7152 3.91709 2.62499 3.74248 2.49051 3.605L2.45551 3.57C2.34704 3.46165 2.26098 3.33298 2.20227 3.19135C2.14356 3.04972 2.11334 2.8979 2.11334 2.74458C2.11334 2.59127 2.14356 2.43945 2.20227 2.29782C2.26098 2.15619 2.34704 2.02752 2.45551 1.91917C2.56386 1.81069 2.69253 1.72464 2.83416 1.66593C2.97579 1.60722 3.12761 1.577 3.28092 1.577C3.43424 1.577 3.58606 1.60722 3.72769 1.66593C3.86932 1.72464 3.99799 1.81069 4.10634 1.91917L4.14134 1.95417C4.27882 2.08865 4.45343 2.17886 4.64266 2.21317C4.83189 2.24748 5.02707 2.22432 5.20301 2.14667H5.24967C5.42221 2.07272 5.56935 1.94994 5.673 1.79344C5.77664 1.63694 5.83226 1.45354 5.83301 1.26583V1.16667C5.83301 0.857247 5.95592 0.560501 6.17472 0.341709C6.39351 0.122916 6.69026 0 6.99967 0C7.30909 0 7.60584 0.122916 7.82463 0.341709C8.04342 0.560501 8.16634 0.857247 8.16634 1.16667V1.21917C8.16709 1.40688 8.22271 1.59027 8.32635 1.74677C8.43 1.90327 8.57714 2.02605 8.74967 2.1C8.92562 2.17765 9.12079 2.20081 9.31002 2.1665C9.49925 2.13219 9.67386 2.04198 9.81134 1.9075L9.84634 1.8725C9.95469 1.76403 10.0834 1.67798 10.225 1.61926C10.3666 1.56055 10.5184 1.53033 10.6718 1.53033C10.8251 1.53033 10.9769 1.56055 11.1185 1.61926C11.2602 1.67798 11.3888 1.76403 11.4972 1.8725C11.6056 1.98085 11.6917 2.10952 11.7504 2.25115C11.8091 2.39278 11.8393 2.5446 11.8393 2.69792C11.8393 2.85123 11.8091 3.00305 11.7504 3.14468C11.6917 3.28631 11.6056 3.41498 11.4972 3.52333L11.4622 3.55833C11.3277 3.69581 11.2375 3.87043 11.2032 4.05966C11.1689 4.24889 11.192 4.44406 11.2697 4.62V4.66667C11.3436 4.8392 11.4664 4.98634 11.6229 5.08999C11.7794 5.19363 11.9628 5.24925 12.1505 5.25H12.2497C12.5591 5.25 12.8558 5.37292 13.0746 5.59171C13.2934 5.8105 13.4163 6.10725 13.4163 6.41667C13.4163 6.72609 13.2934 7.02283 13.0746 7.24162C12.8558 7.46042 12.5591 7.58333 12.2497 7.58333H12.1972C12.0095 7.58408 11.8261 7.6397 11.6696 7.74335C11.5131 7.84699 11.3903 7.99413 11.3163 8.16667V8.16667Z" stroke="white" stroke-width="2" stroke-linecap="round" stroke-linejoin="round" fill="#8FEBF1"/>
</svg>
