<svg width="718" height="517" viewBox="0 0 718 517" fill="none" xmlns="http://www.w3.org/2000/svg">
<g clip-path="url(#clip0)">
<path d="M718 517C681.003 511.577 645.424 506.902 611.26 502.975L624.769 481.096C620.215 479.749 600.205 492.222 600.205 492.222L617.938 428.614C595.034 430.822 583.379 495.8 583.379 495.8L557.792 473.695L570.177 498.471C465.617 487.669 375.316 483.426 299.361 482.936L310.923 464.21C306.369 462.864 286.359 475.336 286.359 475.336L304.092 411.728C281.187 413.937 269.532 478.914 269.532 478.914L243.945 456.809L257.063 483.051C193.387 483.824 141.46 487.225 101.38 491.191C113.076 461.99 152.798 434.35 152.798 434.35C122.465 441.769 106.552 454.363 98.236 466.133C97.6004 430.009 101.877 363.058 133.647 289.061C133.647 289.061 70.9334 403.09 78.9223 479.862L79.8771 493.493C26.7237 499.624 0 506.135 0 506.135L718 517Z" fill="#3F3D56"/>
<path d="M381.786 20.7075V481.489C381.781 486.978 379.598 492.241 375.719 496.121C371.84 500.001 366.58 502.181 361.096 502.183H174.19C171.473 502.187 168.781 501.656 166.27 500.617C163.758 499.579 161.476 498.056 159.554 496.133C157.632 494.211 156.108 491.928 155.069 489.415C154.03 486.902 153.497 484.209 153.5 481.489V20.7075C153.5 17.9881 154.035 15.2952 155.074 12.7828C156.114 10.2703 157.638 7.98746 159.559 6.06455C161.481 4.14164 163.762 2.61635 166.272 1.57578C168.782 0.535218 171.473 -0.000234312 174.19 9.71517e-07H202.16V3.58986C202.16 8.1117 203.954 12.4486 207.148 15.6467C210.342 18.8448 214.674 20.6422 219.192 20.6435H314.254C317.891 20.6513 321.433 19.4845 324.354 17.3166C324.945 16.8867 325.505 16.4164 326.03 15.9091C327.694 14.3189 329.018 12.407 329.922 10.2894C330.825 8.17175 331.289 5.89249 331.286 3.58986V9.71517e-07H361.096C363.813 -0.000832182 366.504 0.534215 369.015 1.57457C371.525 2.61492 373.806 4.14019 375.728 6.06322C377.649 7.98625 379.173 10.2694 380.213 12.7821C381.252 15.2948 381.787 17.9879 381.786 20.7075Z" fill="#3F3D56"/>
<path d="M205.569 81.7495C208.315 81.7495 210.541 79.5216 210.541 76.7734C210.541 74.0252 208.315 71.7974 205.569 71.7974C202.824 71.7974 200.598 74.0252 200.598 76.7734C200.598 79.5216 202.824 81.7495 205.569 81.7495Z" fill="#F2F2F2"/>
<path d="M326.03 15.9092C325.504 16.4165 324.944 16.8868 324.354 17.3167C330.443 28.0414 338.692 37.3826 348.579 44.7481C358.465 52.1136 369.773 57.3427 381.785 60.1036V57.8857C370.098 55.1262 359.108 49.9712 349.512 42.7462C339.915 35.5212 331.919 26.3832 326.03 15.9092Z" fill="#6C63FF"/>
<path d="M283.549 20.6436H281.22C289.49 41.6752 303.131 60.1661 320.778 74.2685C338.426 88.3708 359.463 97.5907 381.786 101.007V98.803C360.044 95.4237 339.554 86.4409 322.331 72.7374C305.107 59.0339 291.742 41.0813 283.549 20.6436Z" fill="#6C63FF"/>
<path d="M240.635 20.6436H238.391C257.163 85.8582 313.806 134.403 381.786 142.287V140.118C314.985 132.271 259.315 84.6497 240.635 20.6436Z" fill="#6C63FF"/>
<path d="M189.233 113.612H187.939V112.316H187.686V113.612H186.392V113.865H187.686V115.16H187.939V113.865H189.233V113.612Z" fill="#F2F2F2"/>
<path d="M276.595 48.9231H275.301V47.6279H275.049V48.9231H273.754V49.1762H275.049V50.4714H275.301V49.1762H276.595V48.9231Z" fill="#F2F2F2"/>
<path d="M202.018 164.794H200.724V163.499H200.472V164.794H199.177V165.047H200.472V166.342H200.724V165.047H202.018V164.794Z" fill="#F2F2F2"/>
<path d="M261.68 127.118H260.386V125.823H260.134V127.118H258.839V127.371H260.134V128.666H260.386V127.371H261.68V127.118Z" fill="#F2F2F2"/>
<path d="M346.911 150.577H345.617V149.281H345.365V150.577H344.07V150.83H345.365V152.125H345.617V150.83H346.911V150.577Z" fill="#F2F2F2"/>
<path d="M331.996 91.7016C333.565 91.7016 334.837 90.4285 334.837 88.8581C334.837 87.2877 333.565 86.0146 331.996 86.0146C330.427 86.0146 329.155 87.2877 329.155 88.8581C329.155 90.4285 330.427 91.7016 331.996 91.7016Z" fill="#FF6584"/>
<path d="M230.216 155.537L228.604 155.786C229.108 159.013 229.506 162.312 229.797 165.575L231.423 165.432C231.132 162.127 230.727 158.8 230.216 155.537Z" fill="#E6E6E6"/>
<path d="M225.805 136.102L224.242 136.578C225.187 139.706 226.032 142.912 226.749 146.104L228.348 145.741C227.616 142.514 226.757 139.273 225.805 136.102Z" fill="#E6E6E6"/>
<path d="M218.766 117.463L217.281 118.146C218.645 121.124 219.923 124.181 221.081 127.238L222.608 126.662C221.436 123.569 220.151 120.47 218.766 117.463Z" fill="#E6E6E6"/>
<path d="M209.248 99.99L207.87 100.864C209.624 103.622 211.308 106.48 212.87 109.345L214.305 108.563C212.728 105.663 211.024 102.777 209.248 99.99Z" fill="#E6E6E6"/>
<path d="M197.416 83.9744L196.173 85.0335C198.289 87.5216 200.349 90.1233 202.295 92.7535L203.602 91.7796C201.642 89.121 199.561 86.4908 197.416 83.9744Z" fill="#E6E6E6"/>
<path d="M183.509 69.7144L182.422 70.9299C184.865 73.1123 187.259 75.4084 189.539 77.7471L190.711 76.6026C188.402 74.2354 185.98 71.918 183.509 69.7144Z" fill="#E6E6E6"/>
<path d="M167.797 57.4734L166.881 58.824C169.594 60.651 172.279 62.5987 174.857 64.6105L175.866 63.3238C173.252 61.2907 170.539 59.3217 167.797 57.4734Z" fill="#E6E6E6"/>
<path d="M153.5 48.9714V50.8197C155.198 51.7083 156.881 52.6395 158.529 53.592L159.345 52.1774C157.428 51.0684 155.479 49.9998 153.5 48.9714Z" fill="#E6E6E6"/>
<path d="M229.847 309.086C230.112 307.496 230.354 305.873 230.567 304.262L232.186 304.477C231.97 306.106 231.725 307.747 231.458 309.354L229.847 309.086Z" fill="#E6E6E6"/>
<path d="M225.294 328.264L226.855 328.751C227.834 325.592 228.72 322.356 229.488 319.132L227.897 318.755C227.137 321.945 226.266 325.14 225.294 328.264Z" fill="#E6E6E6"/>
<path d="M218.162 346.627L219.644 347.322C221.053 344.331 222.372 341.249 223.568 338.163L222.044 337.568C220.862 340.62 219.557 343.669 218.162 346.627Z" fill="#E6E6E6"/>
<path d="M208.565 363.854L209.935 364.744C211.741 361.972 213.474 359.098 215.088 356.207L213.663 355.407C212.071 358.266 210.352 361.107 208.565 363.854Z" fill="#E6E6E6"/>
<path d="M196.692 379.591L197.93 380.665C200.103 378.157 202.21 375.548 204.206 372.909L202.898 371.93C200.93 374.538 198.844 377.115 196.692 379.591Z" fill="#E6E6E6"/>
<path d="M182.789 393.556L183.865 394.785C186.362 392.605 188.804 390.304 191.138 387.967L189.983 386.809C187.676 389.122 185.254 391.391 182.789 393.556Z" fill="#E6E6E6"/>
<path d="M167.125 405.492L168.027 406.86C170.785 405.037 173.524 403.095 176.151 401.093L175.164 399.788C172.561 401.773 169.856 403.693 167.125 405.492Z" fill="#E6E6E6"/>
<path d="M159.53 412.052C157.556 413.168 155.538 414.249 153.5 415.273V413.439C155.261 412.543 157.009 411.597 158.72 410.638L159.53 412.052Z" fill="#E6E6E6"/>
<path d="M230.325 175.659L231.958 175.629C231.988 177.279 231.99 178.938 231.964 180.56L230.332 180.534C230.357 178.931 230.355 177.29 230.325 175.659Z" fill="#E6E6E6"/>
<path d="M160.674 214.419H327.735C340.168 214.419 352.091 219.362 360.882 228.161C369.674 236.959 374.613 248.893 374.613 261.336V267.547H207.551C195.119 267.547 183.195 262.604 174.404 253.805C165.613 245.006 160.674 233.073 160.674 220.63V214.419Z" fill="white"/>
<path d="M271.546 501.53C271.383 501.263 267.539 494.84 266.207 481.503C264.985 469.267 265.77 448.642 276.458 419.873C296.704 365.37 271.792 321.394 271.537 320.956L272.766 320.243C272.831 320.354 279.259 331.566 283.057 349.419C288.075 373.089 286.247 397.7 277.79 420.368C257.578 474.778 272.604 500.535 272.758 500.789L271.546 501.53Z" fill="#F2F2F2"/>
<path d="M263.629 317.756C268.728 317.756 272.862 313.619 272.862 308.515C272.862 303.411 268.728 299.274 263.629 299.274C258.529 299.274 254.396 303.411 254.396 308.515C254.396 313.619 258.529 317.756 263.629 317.756Z" fill="#6C63FF"/>
<path d="M292.749 351.878C297.849 351.878 301.982 347.74 301.982 342.636C301.982 337.533 297.849 333.395 292.749 333.395C287.65 333.395 283.516 337.533 283.516 342.636C283.516 347.74 287.65 351.878 292.749 351.878Z" fill="#F2F2F2"/>
<path d="M272.862 374.625C277.962 374.625 282.096 370.488 282.096 365.384C282.096 360.28 277.962 356.143 272.862 356.143C267.763 356.143 263.629 360.28 263.629 365.384C263.629 370.488 267.763 374.625 272.862 374.625Z" fill="#6C63FF"/>
<path d="M297.011 393.819C302.11 393.819 306.244 389.681 306.244 384.577C306.244 379.474 302.11 375.336 297.011 375.336C291.911 375.336 287.777 379.474 287.777 384.577C287.777 389.681 291.911 393.819 297.011 393.819Z" fill="#6C63FF"/>
<path d="M265.759 423.675C270.858 423.675 274.992 419.537 274.992 414.434C274.992 409.33 270.858 405.192 265.759 405.192C260.659 405.192 256.525 409.33 256.525 414.434C256.525 419.537 260.659 423.675 265.759 423.675Z" fill="#F2F2F2"/>
<path d="M277.124 501.87C277.124 501.87 267.89 479.122 295.591 462.062L277.124 501.87Z" fill="#F2F2F2"/>
<path d="M265.768 501.457C265.768 501.457 261.565 477.267 229.041 477.474L265.768 501.457Z" fill="#F2F2F2"/>
<path opacity="0.2" d="M229.008 297.852C260.389 297.852 285.829 272.391 285.829 240.983C285.829 209.575 260.389 184.114 229.008 184.114C197.626 184.114 172.187 209.575 172.187 240.983C172.187 272.391 197.626 297.852 229.008 297.852Z" fill="#6C63FF"/>
<path opacity="0.2" d="M229.008 281.031C251.108 281.031 269.023 263.101 269.023 240.983C269.023 218.864 251.108 200.934 229.008 200.934C206.908 200.934 188.993 218.864 188.993 240.983C188.993 263.101 206.908 281.031 229.008 281.031Z" fill="#6C63FF"/>
<path d="M229.007 267.415C243.593 267.415 255.417 255.581 255.417 240.983C255.417 226.385 243.593 214.551 229.007 214.551C214.422 214.551 202.598 226.385 202.598 240.983C202.598 255.581 214.422 267.415 229.007 267.415Z" fill="#6C63FF"/>
<path d="M233.81 235.282C233.81 234.471 233.605 233.673 233.214 232.962C232.823 232.252 232.259 231.652 231.574 231.219C230.889 230.785 230.106 230.532 229.297 230.483C228.488 230.435 227.68 230.591 226.948 230.939C226.216 231.287 225.584 231.815 225.11 232.473C224.637 233.132 224.338 233.899 224.241 234.704C224.144 235.509 224.252 236.326 224.555 237.078C224.858 237.83 225.346 238.494 225.974 239.006L224.206 251.395H233.81L232.041 239.006C232.594 238.556 233.04 237.988 233.346 237.344C233.652 236.7 233.81 235.995 233.81 235.282Z" fill="white"/>
<path d="M494.42 37.889C494.42 37.889 478.58 23.6753 457.278 50.4626C435.975 77.2498 402.656 90.3701 395.009 100.757C395.009 100.757 426.689 87.6367 437.614 82.1699C448.538 76.7031 447.992 77.7965 447.992 77.7965C447.992 77.7965 433.244 88.1833 430.513 98.5702C427.782 108.957 429.967 117.704 425.051 128.091C420.135 138.478 519 135.198 519 135.198C519 135.198 528.832 118.251 526.101 100.757C523.37 83.2633 525.008 40.0757 494.42 37.889Z" fill="#2F2E41"/>
<path d="M464.459 82.604C464.459 82.604 467.903 106.736 453.141 112.153C438.379 117.57 443.792 124.957 443.792 124.957L465.935 135.792L489.554 128.405L497.427 116.585C497.427 116.585 484.633 113.63 488.078 104.766C491.522 95.9009 492.507 92.9461 492.507 92.9461L464.459 82.604Z" fill="#FFB9B9"/>
<path opacity="0.1" d="M464.459 82.604C464.459 82.604 467.903 106.736 453.141 112.153C438.379 117.57 443.792 124.957 443.792 124.957L465.935 135.792L489.554 128.405L497.427 116.585C497.427 116.585 484.633 113.63 488.078 104.766C491.522 95.9009 492.507 92.9461 492.507 92.9461L464.459 82.604Z" fill="black"/>
<path d="M526.459 151.551C526.459 151.551 523.014 196.859 523.998 198.829C524.983 200.799 523.998 269.254 523.998 269.254C523.998 269.254 530.887 306.19 522.03 308.16C513.173 310.13 515.141 266.791 515.141 266.791L506.284 209.664L507.268 153.028L526.459 151.551Z" fill="#FFB9B9"/>
<path opacity="0.1" d="M526.459 151.551C526.459 151.551 523.014 196.859 523.998 198.829C524.983 200.799 523.998 269.254 523.998 269.254C523.998 269.254 530.887 306.19 522.03 308.16C513.173 310.13 515.141 266.791 515.141 266.791L506.284 209.664L507.268 153.028L526.459 151.551Z" fill="black"/>
<path d="M430.507 287.968C430.507 287.968 414.269 349.528 414.761 379.569C415.253 409.611 421.65 451.471 421.65 451.471C421.65 451.471 422.634 469.693 421.158 471.663C419.682 473.633 428.539 482.005 428.539 482.005L437.888 476.588L441.332 472.648V469.201C441.332 469.201 435.92 452.456 440.348 439.159C444.777 425.862 447.237 392.374 442.809 382.032L473.317 291.415L430.507 287.968Z" fill="#FFB9B9"/>
<path d="M429.523 474.125C429.523 474.125 423.618 466.738 419.682 469.201C415.745 471.663 409.348 488.407 409.348 488.407C409.348 488.407 387.205 509.584 402.951 510.569C418.697 511.554 425.586 506.137 427.555 502.197C429.523 498.257 447.729 487.915 447.729 487.915C447.729 487.915 445.761 469.201 442.809 468.708C439.856 468.216 435.428 476.095 435.428 476.095L429.523 474.125Z" fill="#2F2E41"/>
<path d="M484.142 291.908V352.975C484.199 360.385 484.692 367.785 485.618 375.137C487.094 385.972 477.253 466.738 477.253 466.738L478.237 481.02L490.539 480.035L492.015 467.723L509.729 413.551C509.729 413.551 515.634 380.554 512.682 368.242C509.729 355.93 527.936 277.134 527.936 277.134L484.142 291.908Z" fill="#FFB9B9"/>
<path d="M474.3 477.573L477.944 476.78C477.944 476.78 480.697 470.678 484.141 472.156C486.565 473.275 488.862 474.652 490.99 476.263L492.506 479.05C492.506 479.05 495.951 486.438 500.379 491.362C504.808 496.287 509.729 507.122 502.348 508.107C494.967 509.092 485.125 509.584 482.173 507.122C479.221 504.659 481.189 500.72 478.237 499.735C475.284 498.75 472.824 495.795 473.316 494.81C473.808 493.825 474.3 477.573 474.3 477.573Z" fill="#2F2E41"/>
<path d="M484.142 99.5668C496.22 99.5668 506.011 89.7673 506.011 77.6791C506.011 65.5909 496.22 55.7915 484.142 55.7915C472.064 55.7915 462.272 65.5909 462.272 77.6791C462.272 89.7673 472.064 99.5668 484.142 99.5668Z" fill="#FFB9B9"/>
<path d="M442.809 116.093L449.308 113.822C449.308 113.822 446.745 118.063 460.523 120.525C474.301 122.987 488.569 123.859 494.967 115.79C494.967 115.79 497.428 114.615 500.872 118.063C504.317 121.51 506.285 120.525 506.285 120.525L503.825 133.33L498.904 156.969L492.507 174.698L474.301 170.758L454.618 156.476L447.237 137.269V119.54L442.809 116.093Z" fill="#6C63FF"/>
<path d="M502.84 122.987L507.761 119.54C507.761 119.54 524.491 122.495 525.475 130.374L512.681 154.998C515.291 161.85 515.114 169.452 512.189 176.175C507.269 187.502 507.761 189.965 507.761 189.965L504.316 204.739L441.824 209.664C441.824 209.664 439.364 203.754 438.38 202.769C437.396 201.784 437.396 198.337 438.38 198.337C439.364 198.337 438.38 196.859 437.396 195.382C436.412 193.904 435.919 193.412 437.396 191.442C438.872 189.472 434.935 171.743 434.935 171.743V152.536L418.205 130.374C418.205 130.374 424.11 121.51 427.062 120.525C430.015 119.54 444.059 115.656 444.059 115.656L447.237 120.339L451.665 155.983L458.062 177.653L484.996 173.072L495.459 155.491L502.348 134.807L502.84 122.987Z" fill="#6C63FF"/>
<path d="M521.539 127.419L525.476 130.374C525.476 130.374 528.92 157.953 527.936 159.923C526.952 161.893 509.73 163.863 509.237 162.878C508.745 161.893 521.539 127.419 521.539 127.419Z" fill="#6C63FF"/>
<path d="M440.348 113.63L445.269 146.134C445.269 146.134 440.84 194.397 441.824 204.246L442.808 207.201C442.808 207.201 440.84 206.216 440.348 208.186C439.856 210.156 440.348 216.558 440.348 216.558C440.348 216.558 437.396 219.513 436.412 235.765C435.427 252.017 423.618 290.923 428.046 292.4C432.475 293.878 459.047 301.265 473.316 299.788C487.586 298.31 538.761 281.073 538.269 276.641C537.777 272.209 513.174 209.664 513.174 209.664C513.174 209.664 508.745 202.277 508.745 201.292C508.745 200.307 514.65 196.367 513.174 192.427C511.698 188.487 503.825 147.119 503.825 147.119L509.237 117.57L501.856 115.6L496.444 144.164C496.444 144.164 475.285 154.506 453.142 145.149L448.221 111.66L440.348 113.63Z" fill="#2F2E41"/>
<path d="M464.022 61.9709C464.022 61.9709 500.435 87.0874 510.276 75.7604C520.118 64.4333 493.054 54.5837 493.054 54.5837L470.419 52.1213L464.022 61.9709Z" fill="#2F2E41"/>
<path d="M407.446 329.16C411.194 331.952 415.831 333.28 420.487 332.896C425.144 332.511 429.5 330.44 432.74 327.071C435.98 323.702 437.881 319.265 438.087 314.594C438.293 309.922 436.789 305.336 433.858 301.694C430.926 298.053 426.769 295.606 422.164 294.813C417.559 294.021 412.824 294.936 408.845 297.387C404.866 299.839 401.917 303.659 400.551 308.13C399.185 312.602 399.496 317.419 401.424 321.679L351.204 363.529L344.517 355.586L341.513 357.597L338.169 353.625L340.916 351.309L337.573 347.337L333.3 350.941L335.357 353.385L330.779 357.246L328.721 354.802L322.006 360.465L325.092 364.131L327.534 362.072L330.877 366.043L327.825 368.617L333.997 375.949L326.672 382.127L334.13 390.986L407.446 329.16ZM419.985 301.086C422.488 301.3 424.871 302.252 426.834 303.822C428.796 305.391 430.249 307.508 431.009 309.904C431.769 312.3 431.803 314.868 431.105 317.283C430.407 319.698 429.009 321.852 427.088 323.472C425.167 325.092 422.809 326.105 420.312 326.384C417.816 326.663 415.293 326.195 413.063 325.038C410.832 323.882 408.994 322.09 407.782 319.888C406.569 317.686 406.036 315.174 406.25 312.669C406.536 309.31 408.145 306.203 410.721 304.03C413.297 301.858 416.629 300.799 419.985 301.086V301.086Z" fill="#6C63FF"/>
<path d="M414.761 157.461C414.761 157.461 418.205 202.769 417.221 204.739C416.237 206.709 417.221 275.164 417.221 275.164C417.221 275.164 410.332 312.1 419.19 314.07C428.047 316.04 426.079 272.701 426.079 272.701L434.936 215.574L433.952 158.938L414.761 157.461Z" fill="#FFB9B9"/>
<path d="M422.142 128.897L418.205 130.374C418.205 130.374 410.824 161.401 412.793 161.401C414.761 161.401 438.38 164.356 438.38 163.371C438.38 162.386 433.951 138.254 433.951 138.254L422.142 128.897Z" fill="#6C63FF"/>
</g>
<defs>
<clipPath id="clip0">
<rect width="718" height="517" fill="white"/>
</clipPath>
</defs>
</svg>
