<svg width="628" height="450" viewBox="0 0 628 450" fill="none" xmlns="http://www.w3.org/2000/svg">
<g clip-path="url(#clip0)">
<path d="M51.0183 448.534L51.6543 447.865C21.0166 418.762 13.0853 378.172 13.0088 377.766L12.1013 377.937C12.1782 378.346 20.1581 419.221 51.0183 448.534Z" fill="white"/>
<path d="M479.65 312.78C484.496 312.764 489.32 312.14 494.01 310.922L494.934 310.666L495.792 310.237C526.794 294.69 552.948 274.154 573.529 249.201C590.566 228.423 603.849 204.832 612.78 179.489C623.46 149.147 628.598 117.131 627.949 84.97C627.936 84.2949 627.925 83.7737 627.925 83.4146C627.925 67.7808 619.249 54.0634 605.822 48.4675C595.545 44.1847 502.239 5.85214 495.498 3.08251C482.801 -3.28046 469.257 2.03044 467.089 2.95917C462.227 4.94738 375.972 40.2344 357.332 49.1121C338.122 58.2617 332.996 74.6986 332.996 82.9683C332.996 120.408 339.479 155.398 352.265 186.967C362.59 212.52 377.225 236.11 395.531 256.71C430.851 296.466 466.18 310.559 466.521 310.683C470.743 312.137 475.186 312.846 479.65 312.78ZM487.959 292.196C484.896 292.883 477.844 293.913 473.247 292.236C467.408 290.106 437.839 274.769 410.207 243.667C372.028 200.694 352.657 146.674 352.629 83.1064C352.697 81.8186 353.611 72.6332 365.773 66.8412C384.051 58.1353 473.706 21.4676 474.61 21.098L474.858 20.993C476.736 20.2055 482.716 18.5467 486.838 20.7071L487.663 21.0919C488.662 21.5025 587.708 62.1911 598.271 66.5933C605.66 69.6728 608.293 77.3018 608.293 83.4146C608.293 83.8613 608.304 84.5111 608.321 85.351C609.165 128.846 599.102 235.874 487.959 292.196Z" fill="#3F3D56"/>
<path d="M491.392 12.0099C491.392 12.0099 591.338 53.0677 602.046 57.5305C612.755 61.9933 618.109 72.704 618.109 83.4147C618.109 94.1255 626.14 233.886 491.392 301.46C491.392 301.46 479.163 304.844 469.884 301.46C460.606 298.075 342.813 240.951 342.813 82.9684C342.813 82.9684 342.813 66.9023 361.552 57.9767C380.292 49.0512 470.896 12.0099 470.896 12.0099C470.896 12.0099 482.022 7.10086 491.392 12.0099Z" fill="#6C63FF"/>
<path opacity="0.1" d="M480.684 44.1421V263.171C480.684 263.171 581.522 214.621 580.63 86.9849L480.684 44.1421Z" fill="black"/>
<path d="M459.16 206.561L427.038 165.25L445.718 150.718L460.928 170.278L512.309 116.027L529.491 132.309L459.16 206.561Z" fill="white"/>
<path d="M-2.22867 450H291.288C291.493 450 291.688 449.919 291.833 449.774C291.977 449.63 292.059 449.434 292.059 449.23C292.059 449.025 291.977 448.829 291.833 448.685C291.688 448.54 291.493 448.459 291.288 448.459H-2.22867C-2.43298 448.459 -2.62894 448.54 -2.77341 448.685C-2.91788 448.829 -2.99905 449.025 -2.99905 449.23C-2.99905 449.434 -2.91788 449.63 -2.77341 449.774C-2.62894 449.919 -2.43298 450 -2.22867 450Z" fill="#CACACA"/>
<path d="M206.441 437.854L194.527 437.853L188.859 391.888L206.443 391.888L206.441 437.854Z" fill="#FFB8B8"/>
<path d="M209.48 433.963L186.016 433.962H186.015C182.05 433.962 178.246 435.538 175.442 438.343C172.638 441.148 171.062 444.952 171.062 448.918V449.404L209.48 449.406L209.48 433.963Z" fill="#2F2E41"/>
<path d="M166.381 437.854L154.466 437.853L148.798 391.888L166.383 391.888L166.381 437.854Z" fill="#FFB8B8"/>
<path d="M169.42 433.963L145.956 433.962H145.955C141.989 433.962 138.186 435.538 135.382 438.343C132.578 441.148 131.002 444.952 131.002 448.918V449.404L169.419 449.406L169.42 433.963Z" fill="#2F2E41"/>
<path d="M187.715 276.434L184.857 422.26L207.977 420.826L224.016 327.943L229.082 264.612L187.715 276.434Z" fill="#2F2E41"/>
<path d="M148.035 251.947L144.795 424.572L171.759 423.801L177.583 321.187L187.713 284.034L229.08 264.613L222.326 218.171L161.543 217.326L148.035 251.947Z" fill="#2F2E41"/>
<path d="M194.523 97.4221C183.104 97.4221 173.848 88.1633 173.848 76.7419C173.848 65.3206 183.104 56.0618 194.523 56.0618C205.942 56.0618 215.199 65.3206 215.199 76.7419C215.199 88.1633 205.942 97.4221 194.523 97.4221Z" fill="#FFB8B8"/>
<path d="M177.374 106.134L174.207 110.933L165.765 134.575L172.518 226.614L212.197 227.46L217.262 121.909L206.651 108.643L177.374 106.134Z" fill="#CCCCCC"/>
<path d="M233.301 124.443L240.055 123.598C240.055 123.598 241.743 124.443 242.588 130.354C243.432 136.264 253.562 188.617 253.562 188.617L240.055 252.791L224.859 232.526L234.145 197.061L224.859 161.596L233.301 124.443Z" fill="#2F2E41"/>
<path d="M147.192 123.599H142.126L129.463 191.994L141.282 245.191L153.101 225.77L149.725 204.661L151.413 186.084L157.322 175.106L147.192 123.599Z" fill="#2F2E41"/>
<path d="M182.304 76.742L186.064 75.802C186.064 75.802 188.883 59.8218 195.462 61.7018C202.041 63.5819 218.957 65.4619 218.957 57.9418C218.957 50.4217 202.98 43.8417 193.582 44.7817C184.184 45.7217 172.181 48.8402 169.147 62.6418C164.283 84.7666 179.183 90.3549 179.183 90.3549L178.935 89.5494C178.246 87.3127 178.197 84.928 178.792 82.6647C179.388 80.4015 180.604 78.3499 182.304 76.742Z" fill="#2F2E41"/>
<path d="M239.211 123.598L212.196 112.621L205.864 107.977L186.869 191.995L178.005 105.444L142.97 123.598L154.789 181.017L156.477 202.972L151.412 220.704C151.412 220.704 133.684 233.37 139.593 246.88C145.503 260.391 152.256 261.235 152.256 261.235C152.256 261.235 180.96 234.214 182.648 227.459C184.337 220.704 186.869 208.882 186.869 208.882C186.869 208.882 201.221 262.924 218.105 262.079C234.99 261.235 234.99 243.503 234.99 243.503L230.769 224.926L224.015 205.505L227.392 173.418L239.211 123.598Z" fill="#2F2E41"/>
</g>
<defs>
<clipPath id="clip0">
<rect width="631" height="450" fill="white" transform="matrix(-1 0 0 1 628 0)"/>
</clipPath>
</defs>
</svg>
