<svg width="608" height="432" viewBox="0 0 608 432" fill="none" xmlns="http://www.w3.org/2000/svg">
<path d="M508.006 66.4265L461.104 66.8929C458.899 55.8143 451.492 26.7456 458.163 18.8169C458.467 15.8327 459.887 13.0832 462.127 11.1407C464.367 9.19829 467.254 8.21257 470.189 8.38875C477.458 -3.227 489.567 -1.48297 497.751 5.77157C505.987 8.67257 509.092 13.8264 508.006 20.8203C514.106 26.2704 515.231 32.9012 512.493 40.4491L508.006 66.4265Z" fill="#2F2E41"/>
<path d="M503.491 95.9198L469.653 91.1371L462.885 81.0403C472.208 74.7278 475.506 65.911 471.214 53.9383L494.641 53.4069C493.543 64.0688 496.998 72.324 506.615 77.3204L503.491 95.9198Z" fill="#FFB9B9"/>
<path d="M461.652 407.478L460.358 425.534C460.299 426.351 460.413 427.172 460.69 427.941C460.968 428.71 461.403 429.409 461.967 429.992C462.531 430.576 463.211 431.029 463.961 431.322C464.711 431.615 465.513 431.741 466.314 431.691L475.4 431.129C475.821 431.103 476.231 430.983 476.602 430.776C476.972 430.57 477.293 430.283 477.542 429.936C477.792 429.589 477.963 429.19 478.044 428.767C478.126 428.345 478.115 427.909 478.012 427.492L472.969 406.9L461.652 407.478Z" fill="#E6E6E6"/>
<path d="M491.067 406.9L486.023 427.492C485.921 427.909 485.91 428.345 485.991 428.768C486.073 429.19 486.244 429.589 486.493 429.936C486.743 430.283 487.064 430.57 487.434 430.776C487.804 430.983 488.215 431.103 488.636 431.129L497.721 431.691C498.523 431.741 499.325 431.615 500.075 431.322C500.825 431.029 501.504 430.576 502.068 429.992C502.633 429.409 503.068 428.71 503.346 427.941C503.623 427.172 503.736 426.351 503.678 425.534L502.384 407.478L491.067 406.9Z" fill="#E6E6E6"/>
<path d="M502.971 409.984L490.709 408.728L478.503 275.537L473.889 408.299L461.843 407.859L441.54 223.99H519.109L502.971 409.984Z" fill="#36D1DB"/>
<path d="M484.23 62.4409C497.168 62.4409 507.656 51.7344 507.656 38.5273C507.656 25.3202 497.168 14.6138 484.23 14.6138C471.291 14.6138 460.803 25.3202 460.803 38.5273C460.803 51.7344 471.291 62.4409 484.23 62.4409Z" fill="#FFB9B9"/>
<path d="M530.562 228.241L435.813 229.304C449.875 174.663 458.286 123.906 443.622 89.0116L467.049 77.3205C478.345 89.3472 490.925 88.1073 504.532 76.2577L526.918 82.1032C523.084 127.862 524.802 176.869 530.562 228.241Z" fill="#36D1DB"/>
<path d="M409.784 171.912L468.612 195.825L481.764 199.774C482.352 199.951 482.969 200.004 483.578 199.931C484.187 199.858 484.776 199.66 485.308 199.349C485.84 199.038 486.305 198.621 486.675 198.122C487.045 197.623 487.313 197.052 487.462 196.445C487.722 195.38 487.605 194.256 487.131 193.27C486.657 192.285 485.856 191.504 484.871 191.064L471.215 186.791L430.087 162.346L438.677 139.23L420.717 129.399L409.784 171.912Z" fill="#FFB9B9"/>
<path d="M410.305 128.336C421.497 132.793 430.399 140.4 437.376 150.655L459.241 118.239L443.623 89.0115L410.305 128.336Z" fill="#332DA0"/>
<path d="M510.632 34.6517C501.124 32.1509 491.776 31.8076 482.688 34.9796C476.9 37.8415 469.948 37.5778 462.217 35.2198V11.3612L503.954 12.4973L510.632 34.6517Z" fill="#2F2E41"/>
<path d="M468.416 144.049C466.576 144.052 464.813 144.798 463.512 146.126C462.211 147.454 461.48 149.254 461.478 151.132L464.216 209.653C464.218 211.531 464.95 213.331 466.251 214.659C467.552 215.987 469.315 216.734 471.155 216.736H502.467C504.307 216.734 506.07 215.987 507.371 214.659C508.672 213.331 509.403 211.531 509.405 209.653L512.144 151.132C512.142 149.254 511.41 147.454 510.11 146.126C508.809 144.798 507.045 144.052 505.206 144.049H468.416Z" fill="#3F3D56"/>
<path d="M557.258 167.491L505.982 188.332L502.114 189.905C501.991 189.954 501.867 189.996 501.737 190.038L488.776 193.931C487.119 194.427 484.826 192.148 483.484 190.576C482.819 189.818 482.443 188.842 482.423 187.825C482.403 186.809 482.74 185.818 483.374 185.033C483.553 184.823 483.75 184.629 483.963 184.453C484.462 184.057 485.051 183.792 485.675 183.685L498.622 181.085C499.087 180.992 499.533 180.822 499.944 180.581L505.982 176.989L537.334 158.356C538.206 157.839 538.87 157.022 539.207 156.052C539.544 155.082 539.533 154.021 539.176 153.058L533.192 136.949C532.825 135.963 532.822 134.874 533.183 133.887C533.545 132.899 534.247 132.079 535.157 131.581L545.071 126.157C545.638 125.847 546.266 125.672 546.908 125.645C547.551 125.618 548.191 125.741 548.78 126.003C549.369 126.266 549.893 126.661 550.31 127.16C550.728 127.659 551.03 128.248 551.192 128.883L559.799 162.347C560.063 163.373 559.951 164.463 559.483 165.41C559.015 166.358 558.224 167.098 557.258 167.491Z" fill="#FFB9B9"/>
<path d="M560.236 122.49C549.043 126.948 540.141 134.555 533.165 144.81L511.3 112.394L526.918 82.1031L560.236 122.49Z" fill="#332DA0"/>
<path d="M499.82 59.8116C489.571 64.1631 478.825 63.9864 467.639 59.8116C470.894 54.1406 466.029 49.6992 463.531 43.9745L505.297 42.7075C502.103 47.6807 497.39 53.5564 499.82 59.8116Z" fill="white"/>
<path d="M504.855 43.6538L504.37 43.1597L505.055 42.4608L509.145 37.588L509.665 38.0423L505.557 42.9347L504.855 43.6538Z" fill="white"/>
<path d="M460.67 40.6918L460.231 41.229L464.34 44.7235L464.778 44.1864L460.67 40.6918Z" fill="white"/>
<path d="M506.035 47.7628L498.844 59.2937L499.421 59.6691L506.612 48.1382L506.035 47.7628Z" fill="white"/>
<path d="M461.424 47.7619L460.847 48.1372L468.036 59.6692L468.614 59.2939L461.424 47.7619Z" fill="white"/>
<path d="M507.351 176V188.662L503.033 190.418C502.895 190.472 502.758 190.519 502.612 190.566L488.145 194.911C486.295 195.465 483.735 192.922 482.237 191.166C481.495 190.32 481.075 189.231 481.053 188.096C481.03 186.961 481.407 185.856 482.115 184.98C482.315 184.745 482.535 184.528 482.772 184.332C483.33 183.889 483.986 183.594 484.683 183.474L499.135 180.572C499.653 180.468 500.152 180.278 500.61 180.01L507.351 176Z" fill="white"/>
<path d="M513.609 130.837H511.135C511.135 95.1155 503.929 70.2216 496.908 70.2216L496.289 67.6959C502.586 67.6959 506.601 78.0566 508.86 86.7484C511.922 98.5315 513.609 114.189 513.609 130.837Z" fill="#3F3D56"/>
<path d="M456.702 121.997H454.228C454.228 89.282 461.483 68.9587 472.166 68.9587L471.547 71.4844C464.158 71.4844 456.702 87.1035 456.702 121.997Z" fill="#3F3D56"/>
<path d="M512.372 137.783C515.788 137.783 518.558 134.956 518.558 131.469C518.558 127.981 515.788 125.154 512.372 125.154C508.956 125.154 506.187 127.981 506.187 131.469C506.187 134.956 508.956 137.783 512.372 137.783Z" fill="#3F3D56"/>
<path d="M446.804 137.151H444.33C444.33 128.099 449.325 120.734 455.464 120.734V123.26C450.689 123.26 446.804 129.492 446.804 137.151Z" fill="#3F3D56"/>
<path d="M466.599 137.151H464.125C464.125 129.492 460.24 123.26 455.465 123.26V120.734C461.604 120.734 466.599 128.099 466.599 137.151Z" fill="#3F3D56"/>
<path d="M465.361 140.308C466.727 140.308 467.835 139.178 467.835 137.783C467.835 136.388 466.727 135.257 465.361 135.257C463.994 135.257 462.887 136.388 462.887 137.783C462.887 139.178 463.994 140.308 465.361 140.308Z" fill="#3F3D56"/>
<path d="M445.567 140.308C446.934 140.308 448.041 139.178 448.041 137.783C448.041 136.388 446.934 135.257 445.567 135.257C444.201 135.257 443.093 136.388 443.093 137.783C443.093 139.178 444.201 140.308 445.567 140.308Z" fill="#3F3D56"/>
<path d="M147.393 52.9057L103.939 60.4172C102.865 60.6042 101.762 60.378 100.842 59.7825C99.9229 59.187 99.2525 58.2644 98.9609 57.1934C95.8214 45.6268 89.2575 30.5378 95.6303 22.9632C95.955 19.7766 97.4712 16.8406 99.8632 14.7663C102.255 12.6921 105.339 11.6395 108.472 11.8276C116.235 -0.576178 129.165 1.28617 137.904 9.03288C146.699 12.1307 150.015 17.6341 148.855 25.1025C152.655 28.4974 154.647 32.3214 155.067 36.5184C155.266 38.8541 154.975 41.2062 154.213 43.4178C153.451 45.6295 152.235 47.6498 150.648 49.344L147.393 52.9057Z" fill="#2F2E41"/>
<path d="M140.636 87.8266L106.949 85.8039C110.251 78.0691 111.569 70.6209 110.252 63.5537H135.352C135.295 68.9799 137.94 78.3663 140.636 87.8266Z" fill="#9F616A"/>
<path d="M100.087 405.569L98.7055 424.851C98.6429 425.723 98.7639 426.6 99.0603 427.421C99.3568 428.242 99.8218 428.989 100.424 429.611C101.027 430.234 101.752 430.718 102.553 431.031C103.354 431.344 104.211 431.478 105.066 431.425L114.768 430.825C115.218 430.797 115.656 430.669 116.051 430.449C116.447 430.229 116.79 429.922 117.056 429.551C117.322 429.181 117.505 428.755 117.592 428.303C117.679 427.852 117.667 427.387 117.558 426.941L112.172 404.952L100.087 405.569Z" fill="#E6E6E6"/>
<path d="M131.497 404.952L126.111 426.941C126.002 427.387 125.99 427.852 126.077 428.303C126.164 428.755 126.347 429.181 126.613 429.551C126.879 429.922 127.222 430.228 127.618 430.449C128.013 430.669 128.451 430.797 128.901 430.825L138.603 431.425C139.458 431.478 140.315 431.344 141.116 431.031C141.917 430.718 142.642 430.234 143.245 429.611C143.847 428.989 144.312 428.242 144.609 427.421C144.905 426.6 145.026 425.723 144.963 424.851L143.582 405.569L131.497 404.952Z" fill="#E6E6E6"/>
<path d="M144.209 408.246L131.116 406.905L118.081 264.678L113.155 406.447L100.292 405.976L78.6113 209.634H161.442L144.209 408.246Z" fill="#36D1DB"/>
<path d="M123.465 71.7387C137.281 71.7387 148.482 60.3059 148.482 46.2029C148.482 32.0998 137.281 20.667 123.465 20.667C109.649 20.667 98.4492 32.0998 98.4492 46.2029C98.4492 60.3059 109.649 71.7387 123.465 71.7387Z" fill="#9F616A"/>
<path d="M151.659 34.004C141.506 32.1991 131.523 31.9512 121.819 34.2407C115.638 36.3063 108.215 36.116 99.959 34.414V17.1937L144.528 18.0137L151.659 34.004Z" fill="#2F2E41"/>
<path d="M140.113 66.6922C129.17 71.3389 117.694 71.1502 105.75 66.6922C109.226 60.6365 104.03 55.8937 101.363 49.7807L145.963 48.4277C142.552 53.7383 137.519 60.0126 140.113 66.6922Z" fill="white"/>
<path d="M98.2921 46.2934L97.8535 46.8306L102.24 50.5619L102.679 50.0247L98.2921 46.2934Z" fill="white"/>
<path d="M146.771 53.8379L139.092 66.1512L139.669 66.5266L147.348 54.2133L146.771 53.8379Z" fill="white"/>
<path d="M99.0914 53.8375L98.5137 54.2128L106.191 66.5272L106.768 66.1519L99.0914 53.8375Z" fill="white"/>
<path d="M75.9052 162.668L56.75 150.532L73.086 101.693C74.908 96.6531 78.3979 92.4218 82.9522 89.7303L88.4552 86.4781L88.9337 135.748L75.9052 162.668Z" fill="#332DA0"/>
<path d="M158.702 186.388L155.868 161.61C155.717 148.531 157.897 135.887 163.094 124.236L165.736 87.8266L136.673 75.6902C136.584 76.2947 136.508 76.8989 136.423 77.5034L122.802 84.4554L109.518 81.3736L109.592 77.0387L83.1706 89.1752C91.908 130.64 87.1424 173.7 72.1172 224.56L106.924 234.275L107.214 217.215L138.235 214.953C138.554 220.488 138.811 225.925 138.96 231.241C156.464 237.819 157.065 237.71 173.014 228.292C166.663 214.661 161.634 200.477 158.702 186.388Z" fill="#36D1DB"/>
<path d="M203.386 156.6L185.552 150.532L157.025 116.633L165.736 87.827L205.368 144.464L203.386 156.6Z" fill="#332DA0"/>
<path d="M147.493 182.844C147.785 184.151 148.573 185.287 149.684 186.002C150.795 186.717 152.138 186.954 153.419 186.659L168.558 183.16L166.37 173.296L151.231 176.795C149.95 177.091 148.836 177.895 148.135 179.029C147.434 180.164 147.203 181.536 147.493 182.844V182.844Z" fill="#E6E6E6"/>
<path d="M161.113 171.433L169.7 187.615C184.143 183.503 196.66 170.54 208.671 155.251L205.368 144.464L184.892 149.857L161.113 171.433Z" fill="#332DA0"/>
<path d="M49.1543 120.674L65.6388 123.679L103.318 178.366L83.3009 173.559L49.1543 120.674Z" fill="#E6E6E6"/>
<path d="M46.2306 120.005C45.9794 120.009 45.7338 120.081 45.5196 120.215C45.3053 120.349 45.1302 120.539 45.0127 120.766C44.8951 120.993 44.8393 121.247 44.8512 121.504C44.863 121.76 44.9421 122.008 45.0802 122.222L80.2999 176.769C80.4964 177.074 80.8 177.291 81.1481 177.374L97.5348 181.31C97.8111 181.376 98.1006 181.355 98.365 181.25C98.6294 181.144 98.8561 180.959 99.0151 180.719C99.174 180.479 99.2578 180.196 99.2552 179.906C99.2525 179.616 99.1637 179.334 99.0004 179.097L60.3313 122.972C60.2264 122.819 60.093 122.689 59.9388 122.589C59.7846 122.488 59.6125 122.42 59.4324 122.388L46.4947 120.029C46.4075 120.013 46.3192 120.005 46.2306 120.005Z" fill="#3F3D56"/>
<path d="M68.1992 159.006L69.1781 169.07L84.6243 167.505C85.9318 167.372 87.1341 166.715 87.9669 165.678C88.7996 164.64 89.1946 163.308 89.0648 161.973C88.935 160.639 88.2912 159.411 87.2749 158.561C86.2587 157.711 84.9532 157.308 83.6458 157.441L68.1992 159.006Z" fill="#E6E6E6"/>
<path d="M54.7676 157.84C54.79 161.272 56.1402 164.555 58.5241 166.975C60.9079 169.395 64.132 170.755 67.494 170.759H70.0338L71.8829 155.03L56.5731 149.404L54.7676 157.84Z" fill="#332DA0"/>
<path d="M144.742 50.1678L144.258 49.6736L144.989 48.9272L149.358 43.7224L149.878 44.1767L145.491 49.4011L144.742 50.1678Z" fill="white"/>
<path d="M232.107 429.903H375.891V251.88C375.891 242.453 366.795 234.784 355.615 234.784H252.384C241.203 234.784 232.107 242.453 232.107 251.88V429.903Z" fill="#E6E6E6"/>
<path d="M243.062 422.542H364.936V271.645C364.936 263.655 357.226 257.155 347.75 257.155H260.249C250.772 257.155 243.062 263.655 243.062 271.645V422.542Z" fill="white"/>
<path d="M231.022 220.929C227.468 220.929 224.576 223.367 224.576 226.364V242.05C224.576 245.046 227.468 247.484 231.022 247.484H376.978C380.532 247.484 383.423 245.046 383.423 242.05V226.364C383.423 223.367 380.532 220.929 376.978 220.929H231.022Z" fill="#3F3D56"/>
<path d="M260.988 403.193C259.32 403.198 257.721 403.877 256.541 405.081C255.361 406.285 254.696 407.917 254.691 409.621C254.696 411.324 255.361 412.956 256.541 414.16C257.721 415.364 259.32 416.043 260.988 416.048H272.775V403.193H260.988Z" fill="#3F3D56"/>
<path d="M283.592 403.193H272.129V416.048H283.592C285.261 416.043 286.86 415.364 288.039 414.16C289.219 412.956 289.884 411.324 289.889 409.621C289.884 407.917 289.219 406.285 288.039 405.081C286.86 403.877 285.261 403.198 283.592 403.193Z" fill="#332DA0"/>
<path opacity="0.2" d="M287.701 404.767C288.694 405.929 289.242 407.419 289.243 408.961C289.238 410.664 288.573 412.296 287.394 413.501C286.214 414.705 284.615 415.384 282.946 415.389H272.129V416.048H283.592C285.261 416.043 286.86 415.364 288.039 414.16C289.219 412.956 289.884 411.324 289.889 409.62C289.888 408.698 289.691 407.788 289.314 406.95C288.936 406.113 288.386 405.368 287.701 404.767Z" fill="black"/>
<path d="M314.175 306.376C313.027 305.14 311.446 304.418 309.779 304.368C308.111 304.317 306.491 304.943 305.274 306.107C304.063 307.279 303.356 308.893 303.306 310.595C303.257 312.298 303.87 313.951 305.011 315.194L313.096 323.948L322.26 315.13L314.175 306.376Z" fill="#3F3D56"/>
<path d="M329.68 323.166L321.817 314.651L312.653 323.469L320.516 331.983C321.664 333.219 323.245 333.941 324.913 333.992C326.581 334.042 328.2 333.416 329.418 332.252C330.628 331.08 331.336 329.466 331.385 327.764C331.434 326.061 330.821 324.408 329.68 323.166Z" fill="#332DA0"/>
<path opacity="0.2" d="M331.377 327.297C331.229 328.832 330.543 330.261 329.445 331.32C328.227 332.484 326.608 333.11 324.94 333.06C323.272 333.009 321.691 332.287 320.543 331.051L313.123 323.016L312.653 323.469L320.516 331.983C321.665 333.219 323.245 333.941 324.913 333.992C326.581 334.042 328.2 333.416 329.418 332.252C330.074 331.618 330.589 330.848 330.927 329.993C331.265 329.138 331.418 328.218 331.377 327.297Z" fill="black"/>
<path d="M280.625 326.644C279.477 325.408 277.896 324.686 276.229 324.636C274.561 324.586 272.941 325.211 271.724 326.376C270.513 327.548 269.806 329.161 269.757 330.863C269.707 332.566 270.32 334.219 271.461 335.462L279.546 344.217L288.71 335.399L280.625 326.644Z" fill="#3F3D56"/>
<path d="M296.131 343.434L288.267 334.919L279.104 343.737L286.967 352.252C288.115 353.488 289.695 354.209 291.363 354.26C293.031 354.31 294.65 353.685 295.868 352.52C297.079 351.348 297.786 349.735 297.835 348.032C297.884 346.33 297.272 344.677 296.131 343.434Z" fill="#332DA0"/>
<path opacity="0.2" d="M297.827 347.566C297.679 349.1 296.993 350.529 295.895 351.588C294.677 352.753 293.058 353.378 291.39 353.328C289.722 353.278 288.142 352.556 286.994 351.32L279.573 343.285L279.104 343.737L286.967 352.252C288.115 353.488 289.695 354.21 291.363 354.26C293.031 354.31 294.65 353.685 295.868 352.52C296.524 351.886 297.039 351.116 297.377 350.261C297.715 349.406 297.868 348.487 297.827 347.566Z" fill="black"/>
<path d="M314.175 345.515C313.027 344.279 311.446 343.557 309.779 343.506C308.111 343.456 306.491 344.082 305.274 345.246C304.063 346.418 303.356 348.032 303.306 349.734C303.257 351.437 303.87 353.09 305.011 354.332L313.096 363.087L322.26 354.269L314.175 345.515Z" fill="#3F3D56"/>
<path d="M329.68 362.304L321.817 353.79L312.653 362.607L320.516 371.122C321.664 372.358 323.245 373.08 324.913 373.13C326.581 373.181 328.2 372.555 329.418 371.391C330.628 370.219 331.336 368.605 331.385 366.903C331.434 365.2 330.821 363.547 329.68 362.304Z" fill="#332DA0"/>
<path opacity="0.2" d="M331.377 366.436C331.229 367.971 330.543 369.4 329.445 370.459C328.227 371.623 326.608 372.249 324.94 372.199C323.272 372.148 321.691 371.426 320.543 370.19L313.123 362.155L312.653 362.607L320.516 371.122C321.665 372.358 323.245 373.08 324.913 373.13C326.581 373.181 328.2 372.555 329.418 371.391C330.074 370.757 330.589 369.987 330.927 369.132C331.265 368.277 331.418 367.357 331.377 366.436Z" fill="black"/>
<path d="M334.643 385.679C335.84 384.492 336.527 382.87 336.556 381.167C336.585 379.464 335.953 377.819 334.797 376.59C333.635 375.369 332.046 374.666 330.377 374.637C328.709 374.607 327.097 375.253 325.894 376.432L317.416 384.791L326.165 394.037L334.643 385.679Z" fill="#3F3D56"/>
<path d="M318.383 401.708L326.629 393.579L317.88 384.333L309.634 392.462C308.438 393.649 307.75 395.271 307.721 396.974C307.692 398.677 308.324 400.322 309.48 401.551C310.642 402.772 312.231 403.475 313.9 403.504C315.568 403.534 317.18 402.888 318.383 401.708Z" fill="#332DA0"/>
<path opacity="0.2" d="M314.357 403.49C312.851 403.358 311.444 402.675 310.393 401.567C309.237 400.338 308.605 398.693 308.634 396.99C308.663 395.287 309.351 393.665 310.548 392.478L318.328 384.807L317.88 384.333L309.634 392.462C308.438 393.649 307.75 395.271 307.721 396.974C307.692 398.677 308.324 400.322 309.48 401.551C310.108 402.213 310.869 402.729 311.711 403.063C312.553 403.398 313.455 403.544 314.357 403.49Z" fill="black"/>
<path d="M289.453 365.41C290.65 364.224 291.338 362.602 291.367 360.899C291.396 359.196 290.764 357.55 289.608 356.322C288.445 355.1 286.856 354.398 285.188 354.368C283.52 354.339 281.908 354.984 280.704 356.164L272.227 364.522L280.976 373.769L289.453 365.41Z" fill="#3F3D56"/>
<path d="M273.195 381.44L281.44 373.311L272.691 364.064L264.446 372.194C263.249 373.381 262.561 375.003 262.532 376.705C262.503 378.408 263.136 380.054 264.291 381.282C265.454 382.504 267.043 383.206 268.711 383.236C270.38 383.265 271.991 382.62 273.195 381.44Z" fill="#332DA0"/>
<path opacity="0.2" d="M269.168 383.222C267.663 383.09 266.255 382.407 265.204 381.299C264.049 380.07 263.416 378.425 263.445 376.722C263.474 375.019 264.162 373.397 265.359 372.21L273.14 364.539L272.691 364.064L264.446 372.194C263.249 373.381 262.561 375.003 262.532 376.705C262.503 378.408 263.136 380.054 264.291 381.282C264.92 381.944 265.681 382.46 266.523 382.795C267.364 383.13 268.267 383.275 269.168 383.222Z" fill="black"/>
<path d="M353.814 340.949C355.01 339.762 355.698 338.14 355.727 336.437C355.756 334.734 355.124 333.088 353.968 331.86C352.806 330.638 351.217 329.936 349.548 329.906C347.88 329.877 346.268 330.522 345.065 331.702L336.587 340.06L345.336 349.307L353.814 340.949Z" fill="#3F3D56"/>
<path d="M337.555 356.978L345.801 348.849L337.052 339.603L328.806 347.732C327.61 348.919 326.922 350.541 326.893 352.244C326.864 353.947 327.496 355.592 328.652 356.821C329.814 358.042 331.403 358.744 333.072 358.774C334.74 358.804 336.352 358.158 337.555 356.978Z" fill="#332DA0"/>
<path opacity="0.2" d="M333.529 358.76C332.023 358.628 330.615 357.945 329.565 356.837C328.409 355.608 327.777 353.963 327.806 352.26C327.835 350.557 328.523 348.935 329.719 347.748L337.5 340.077L337.052 339.603L328.806 347.732C327.61 348.919 326.922 350.541 326.893 352.244C326.864 353.947 327.496 355.592 328.652 356.821C329.28 357.483 330.041 357.999 330.883 358.333C331.724 358.668 332.627 358.814 333.529 358.76Z" fill="black"/>
<path d="M339.509 391.643C338.361 390.407 336.78 389.685 335.112 389.634C333.445 389.584 331.825 390.21 330.608 391.374C329.397 392.546 328.69 394.16 328.64 395.862C328.591 397.564 329.204 399.218 330.345 400.46L338.43 409.215L347.594 400.397L339.509 391.643Z" fill="#3F3D56"/>
<path d="M355.013 408.432L347.15 399.918L337.986 408.735L345.849 417.25C346.998 418.486 348.578 419.208 350.246 419.258C351.914 419.309 353.533 418.683 354.751 417.519C355.961 416.347 356.669 414.733 356.718 413.031C356.767 411.328 356.154 409.675 355.013 408.432Z" fill="#332DA0"/>
<path opacity="0.2" d="M356.71 412.564C356.562 414.099 355.876 415.528 354.778 416.587C353.56 417.751 351.941 418.377 350.273 418.326C348.605 418.276 347.025 417.554 345.876 416.318L338.456 408.283L337.986 408.735L345.849 417.25C346.998 418.486 348.578 419.208 350.246 419.258C351.914 419.309 353.533 418.683 354.751 417.519C355.407 416.885 355.922 416.114 356.26 415.259C356.598 414.404 356.751 413.485 356.71 412.564Z" fill="black"/>
<path d="M295.004 390.944C293.856 389.708 292.275 388.986 290.608 388.936C288.94 388.885 287.32 389.511 286.103 390.675C284.892 391.847 284.185 393.461 284.136 395.163C284.086 396.866 284.699 398.519 285.84 399.762L293.925 408.516L303.089 399.698L295.004 390.944Z" fill="#3F3D56"/>
<path d="M310.509 407.733L302.645 399.219L293.481 408.036L301.345 416.551C302.493 417.787 304.073 418.509 305.741 418.559C307.409 418.61 309.028 417.984 310.246 416.82C311.457 415.648 312.164 414.034 312.213 412.332C312.262 410.629 311.65 408.976 310.509 407.733Z" fill="#332DA0"/>
<path opacity="0.2" d="M312.205 411.865C312.057 413.4 311.371 414.829 310.273 415.888C309.055 417.052 307.436 417.678 305.768 417.628C304.1 417.577 302.52 416.855 301.372 415.619L293.951 407.584L293.481 408.037L301.345 416.551C302.493 417.787 304.073 418.509 305.741 418.559C307.409 418.61 309.028 417.984 310.246 416.82C310.902 416.186 311.417 415.416 311.755 414.561C312.093 413.706 312.246 412.786 312.205 411.865Z" fill="black"/>
<path d="M307.531 367.884C307.532 370.021 306.809 372.093 305.485 373.748C304.161 375.404 302.318 376.541 300.266 376.969C299.068 377.216 297.833 377.216 296.634 376.969C294.583 376.541 292.74 375.403 291.416 373.748C290.092 372.092 289.369 370.021 289.369 367.884C289.369 365.747 290.092 363.676 291.416 362.021C292.74 360.365 294.583 359.228 296.634 358.8C297.833 358.553 299.068 358.553 300.266 358.8C302.318 359.227 304.161 360.365 305.485 362.02C306.809 363.676 307.532 365.747 307.531 367.884Z" fill="#332DA0"/>
<path opacity="0.2" d="M300.266 358.8V376.969C299.067 377.216 297.832 377.216 296.634 376.969V358.8C297.832 358.553 299.067 358.553 300.266 358.8Z" fill="black"/>
<path d="M311.64 330.842C311.64 332.979 310.917 335.051 309.593 336.706C308.27 338.361 306.426 339.499 304.375 339.926C303.176 340.174 301.941 340.174 300.742 339.926C298.691 339.499 296.848 338.361 295.524 336.705C294.201 335.05 293.478 332.979 293.478 330.842C293.478 328.705 294.201 326.634 295.524 324.979C296.848 323.323 298.691 322.186 300.742 321.758C301.941 321.511 303.176 321.511 304.375 321.758C306.426 322.185 308.27 323.323 309.593 324.978C310.917 326.634 311.64 328.705 311.64 330.842Z" fill="#332DA0"/>
<path opacity="0.2" d="M304.375 321.758V339.926C303.176 340.174 301.941 340.174 300.742 339.926V321.758C301.941 321.511 303.176 321.511 304.375 321.758Z" fill="black"/>
<path d="M311.64 383.959C311.64 386.096 310.917 388.168 309.593 389.823C308.27 391.478 306.426 392.616 304.375 393.044C303.176 393.291 301.941 393.291 300.742 393.044C298.691 392.616 296.848 391.478 295.524 389.823C294.201 388.167 293.478 386.096 293.478 383.959C293.478 381.822 294.201 379.751 295.524 378.096C296.848 376.44 298.691 375.303 300.742 374.875C301.941 374.628 303.176 374.628 304.375 374.875C306.426 375.302 308.27 376.44 309.593 378.095C310.917 379.751 311.64 381.822 311.64 383.959Z" fill="#332DA0"/>
<path opacity="0.2" d="M304.375 374.875V393.044C303.176 393.291 301.941 393.291 300.742 393.044V374.875C301.941 374.628 303.176 374.628 304.375 374.875Z" fill="black"/>
<path d="M334.234 409.819C334.235 411.956 333.512 414.027 332.188 415.683C330.864 417.338 329.021 418.476 326.97 418.903C325.771 419.15 324.536 419.15 323.337 418.903C321.286 418.475 319.443 417.338 318.119 415.682C316.795 414.027 316.072 411.956 316.072 409.819C316.072 407.682 316.795 405.611 318.119 403.955C319.443 402.3 321.286 401.162 323.337 400.734C324.536 400.487 325.771 400.487 326.97 400.734C329.021 401.162 330.864 402.3 332.188 403.955C333.512 405.61 334.235 407.682 334.234 409.819Z" fill="#332DA0"/>
<path opacity="0.2" d="M326.969 400.734V418.903C325.771 419.15 324.536 419.15 323.337 418.903V400.734C324.536 400.487 325.771 400.487 326.969 400.734Z" fill="black"/>
<path d="M354.194 362.24C355.701 363.723 356.661 365.692 356.909 367.813C357.158 369.935 356.681 372.08 355.559 373.884C354.902 374.936 354.045 375.844 353.039 376.553C351.314 377.764 349.232 378.329 347.146 378.153C345.059 377.977 343.097 377.071 341.589 375.588C340.082 374.106 339.123 372.137 338.874 370.015C338.625 367.893 339.102 365.749 340.223 363.945C340.881 362.892 341.738 361.985 342.744 361.275C344.469 360.064 346.551 359.499 348.637 359.675C350.724 359.85 352.687 360.757 354.194 362.24Z" fill="#332DA0"/>
<path opacity="0.2" d="M342.744 361.275L355.56 373.884C354.902 374.936 354.045 375.844 353.039 376.553L340.224 363.945C340.881 362.892 341.738 361.985 342.744 361.275Z" fill="black"/>
<path d="M356.933 382.508C358.44 383.991 359.4 385.96 359.649 388.082C359.898 390.204 359.421 392.348 358.299 394.152C357.641 395.205 356.784 396.112 355.778 396.822C354.053 398.032 351.971 398.597 349.885 398.422C347.799 398.246 345.836 397.34 344.329 395.857C342.821 394.374 341.862 392.405 341.613 390.283C341.364 388.162 341.841 386.017 342.963 384.213C343.62 383.161 344.477 382.253 345.483 381.543C347.208 380.332 349.29 379.767 351.377 379.943C353.463 380.119 355.426 381.025 356.933 382.508Z" fill="#332DA0"/>
<path opacity="0.2" d="M345.484 381.543L358.299 394.152C357.641 395.205 356.784 396.112 355.778 396.822L342.963 384.213C343.62 383.161 344.478 382.253 345.484 381.543Z" fill="black"/>
<path d="M275.454 387.401C276.962 388.884 277.921 390.852 278.17 392.974C278.419 395.096 277.942 397.24 276.82 399.044C276.163 400.097 275.306 401.005 274.299 401.714C272.574 402.925 270.493 403.49 268.406 403.314C266.32 403.138 264.357 402.232 262.85 400.749C261.343 399.266 260.384 397.298 260.135 395.176C259.886 393.054 260.362 390.91 261.484 389.106C262.142 388.053 262.999 387.145 264.005 386.436C265.73 385.225 267.812 384.66 269.898 384.835C271.984 385.011 273.947 385.918 275.454 387.401Z" fill="#332DA0"/>
<path opacity="0.2" d="M264.005 386.436L276.82 399.044C276.163 400.097 275.306 401.005 274.3 401.714L261.484 389.105C262.142 388.053 262.999 387.145 264.005 386.436Z" fill="black"/>
<path opacity="0.2" d="M246.144 220.929H242.721V246.789H246.144V220.929Z" fill="black"/>
<path opacity="0.2" d="M266 220.929H262.576V246.789H266V220.929Z" fill="black"/>
<path opacity="0.2" d="M285.856 220.929H282.433V246.789H285.856V220.929Z" fill="black"/>
<path opacity="0.2" d="M305.711 220.929H302.288V246.789H305.711V220.929Z" fill="black"/>
<path opacity="0.2" d="M325.568 220.929H322.145V246.789H325.568V220.929Z" fill="black"/>
<path opacity="0.2" d="M345.423 220.929H342V246.789H345.423V220.929Z" fill="black"/>
<path opacity="0.2" d="M365.279 220.929H361.855V246.789H365.279V220.929Z" fill="black"/>
</svg>
