<svg width="753" height="534" viewBox="0 0 753 534" fill="none" xmlns="http://www.w3.org/2000/svg">
<g clip-path="url(#clip0)">
<path d="M515.079 62H514.777C502.753 62 492.119 68.354 486.002 77.7301C479.885 68.354 469.251 62 457.227 62H456.925C447.901 62.0859 439.276 65.7247 432.923 72.1257C426.571 78.5267 423.005 87.1726 423 96.1845C423 107.375 427.908 123.255 437.478 136.321C455.712 161.218 486.002 183 486.002 183C486.002 183 516.292 161.222 534.522 136.321C544.096 123.255 549 107.375 549 96.1845C548.995 87.1733 545.43 78.528 539.078 72.1271C532.727 65.7262 524.102 62.0869 515.079 62ZM510.756 138.236C509.386 138.231 508.05 137.812 506.923 137.035C505.797 136.258 504.931 135.159 504.441 133.882H497.253C496.779 133.879 496.318 133.729 495.935 133.452C495.551 133.175 495.264 132.785 495.113 132.337L492.905 125.693L485.917 150.075C485.781 150.544 485.496 150.957 485.106 151.251C484.715 151.545 484.239 151.704 483.749 151.705H483.608C483.098 151.68 482.611 151.481 482.23 151.141C481.849 150.802 481.596 150.341 481.513 149.838L474.312 106.587L469.05 132.18C468.929 132.666 468.649 133.098 468.254 133.406C467.859 133.715 467.371 133.882 466.87 133.882H456.743C456.44 133.895 456.137 133.846 455.853 133.739C455.568 133.632 455.309 133.469 455.089 133.259C454.87 133.049 454.696 132.796 454.576 132.517C454.457 132.238 454.396 131.938 454.396 131.635C454.396 131.331 454.457 131.031 454.576 130.752C454.696 130.473 454.87 130.221 455.089 130.011C455.309 129.801 455.568 129.637 455.853 129.53C456.137 129.423 456.44 129.374 456.743 129.387H465.097L472.551 94.9773C472.674 94.4686 472.969 94.0181 473.387 93.7028C473.806 93.3876 474.32 93.2272 474.844 93.2491C475.367 93.2709 475.867 93.4737 476.257 93.8227C476.648 94.1717 476.904 94.6453 476.984 95.1624L484.338 139.282L490.6 117.468C490.73 117.008 491.006 116.603 491.386 116.313C491.765 116.023 492.229 115.864 492.707 115.858H492.752C493.225 115.858 493.687 116.008 494.07 116.285C494.454 116.563 494.739 116.954 494.887 117.404L498.88 129.399H504.353C504.742 128.219 505.45 127.169 506.399 126.365C507.348 125.561 508.501 125.034 509.73 124.844C510.96 124.653 512.218 124.805 513.367 125.283C514.515 125.761 515.509 126.547 516.239 127.554C516.968 128.561 517.405 129.749 517.501 130.988C517.597 132.227 517.348 133.469 516.782 134.575C516.216 135.682 515.355 136.611 514.294 137.26C513.232 137.909 512.012 138.252 510.768 138.252L510.756 138.236Z" fill="#36D1DB"/>
<path opacity="0.1" d="M250.341 533.111C287.012 533.111 316.739 528.336 316.739 522.446C316.739 516.556 287.012 511.781 250.341 511.781C213.671 511.781 183.943 516.556 183.943 522.446C183.943 528.336 213.671 533.111 250.341 533.111Z" fill="#332DA0"/>
<path opacity="0.1" d="M611.27 533.411C657.029 533.411 694.125 528.636 694.125 522.746C694.125 516.856 657.029 512.081 611.27 512.081C565.511 512.081 528.416 516.856 528.416 522.746C528.416 528.636 565.511 533.411 611.27 533.411Z" fill="#332DA0"/>
<path opacity="0.1" d="M9.43103 230.472H78.5887V324.739H14.494C14.3237 325.707 14.1601 326.681 13.9829 327.656H78.5887V403.68C78.4728 403.646 78.3706 403.605 78.2616 403.564C76.4354 402.842 74.6228 402.079 72.8102 401.261L71.6518 400.736C69.8347 399.878 68.0175 398.969 66.2004 398.01C65.5667 397.677 64.933 397.329 64.306 396.975C54.2181 391.323 45.0538 384.162 37.1309 375.74C36.8992 375.515 36.6812 375.277 36.4495 375.059C35.3456 373.859 34.2621 372.646 33.2127 371.406L32.0543 370.043C30.8141 368.523 29.6148 366.963 28.4496 365.382C28.2792 365.15 28.1157 364.918 27.9385 364.7C23.1995 358.129 19.2647 351.014 16.218 343.507C16.1226 343.282 16.0408 343.037 15.9523 342.825C15.0164 340.417 14.1874 337.987 13.4651 335.534C13.1516 334.505 12.8518 333.489 12.5928 332.419C12.4974 332.106 12.4157 331.799 12.3407 331.493C8.47022 316.384 8.01367 300.69 8.01367 285.105C8.01367 283.286 8.01367 281.459 8.01367 279.653C8.01367 273.35 8.08863 267.005 8.19766 260.668C8.19766 259.025 8.2658 257.39 8.29987 255.741C8.39527 251.557 8.53155 247.372 8.70872 243.188C8.74961 242.023 8.80412 240.864 8.86545 239.706C8.86545 239.038 8.89952 238.37 8.96767 237.702C9.13121 235.276 9.26749 232.871 9.43103 230.472Z" fill="#332DA0"/>
<path opacity="0.1" d="M78.5882 125.512H40.6533C46.8198 115.86 53.5575 106.585 60.8303 97.7359C66.4656 90.8122 72.4145 84.0656 78.5882 77.5645V125.512Z" fill="#332DA0"/>
<path opacity="0.1" d="M78.589 128.429V227.555H9.64941C9.64941 227.269 9.69711 226.976 9.71756 226.69C9.77888 225.906 9.84021 225.122 9.90835 224.346C9.98331 223.432 10.0651 222.512 10.1537 221.62C10.2423 220.727 10.3377 219.637 10.4399 218.649C10.5421 217.66 10.6375 216.659 10.7533 215.671C10.8692 214.682 10.9714 213.694 11.094 212.713C11.2167 211.732 11.3257 210.737 11.4552 209.755C11.5574 208.938 11.6664 208.127 11.7755 207.309C11.9322 206.157 12.0957 204.999 12.2729 203.854C12.2729 203.684 12.3206 203.506 12.3479 203.343C13.5916 194.962 15.2862 186.654 17.4245 178.456C19.6626 169.855 22.5207 161.429 25.9763 153.241C29.649 144.677 33.9491 136.395 38.8416 128.463L78.589 128.429Z" fill="#332DA0"/>
<path opacity="0.1" d="M95.0996 230.465V324.739H242.812V230.465H95.0996ZM95.0996 327.649V408.607C95.9446 408.784 96.7827 408.955 97.6141 409.098C98.7452 409.316 99.8696 409.513 101.021 409.684C101.239 409.718 101.464 409.752 101.703 409.772C102.152 409.847 102.616 409.909 103.065 409.97C104.203 410.127 105.335 410.256 106.473 410.359C107.011 410.413 107.556 410.461 108.101 410.502L109.416 410.604C110.132 410.658 110.84 410.699 111.542 410.72C111.978 410.72 112.415 410.761 112.864 410.774C113.205 410.774 113.546 410.774 113.9 410.774C114.254 410.774 114.759 410.774 115.188 410.774C115.774 410.774 116.36 410.774 116.939 410.774H117.723C118.309 410.774 118.895 410.774 119.474 410.72H119.515C119.917 410.72 120.326 410.72 120.735 410.665C120.848 410.672 120.962 410.672 121.075 410.665C121.416 410.665 121.757 410.665 122.084 410.617H122.322L124.605 410.44C125.355 410.372 126.111 410.284 126.874 410.202L128.428 410.018C134.749 409.132 140.999 407.802 147.133 406.038C160.911 402.195 174.39 396.818 188.162 392.879C205.967 387.802 225.64 385.308 242.846 391.516V327.649H95.0996ZM242.812 125.512V0.00675006C226.64 -0.168471 210.512 1.72315 194.819 5.63566C157.416 15.0331 123.856 35.4157 95.0996 61.4478V125.506H102.513V128.415H95.0996V227.555H242.812V128.422H132.953V125.512H242.812ZM432.54 83.1184C423.287 82.7913 414.088 79.861 405.767 75.336C389.856 66.6814 377.148 53.3179 362.947 42.0396C333.441 18.5494 296.849 4.37495 259.309 0.858583V125.512H470.175L470.7 124.96L432.54 83.1184ZM451.75 79.7111L472.118 102.063V73.8504C465.296 74.6955 459.32 76.7058 451.777 79.6838L451.75 79.7111ZM472.118 428.71V327.649H428.718C428.602 327.22 428.486 326.783 428.35 326.347C428.479 326.783 428.588 327.22 428.711 327.649H259.336V400.736C260.944 401.929 262.532 403.183 264.106 404.457C265.803 405.82 267.479 407.258 269.162 408.668L270.859 410.072C271.67 410.754 272.488 411.435 273.312 412.076C274.948 413.402 276.599 414.711 278.266 416.001C279.091 416.683 279.936 417.296 280.774 417.936C294.08 428.111 308.117 437.292 322.77 445.406C326.054 447.224 329.368 448.998 332.712 450.729C334.94 451.867 337.182 452.998 339.431 454.095C342.811 455.744 346.218 457.334 349.652 458.865C381.315 473.08 414.797 482.833 449.14 487.848C456.767 488.975 464.424 489.861 472.111 490.506V428.704H472.792L472.118 428.71ZM259.336 128.422V227.555H472.145V128.422H259.336ZM259.336 230.465V324.739H472.145V230.465H259.336ZM488.662 73.7278V105.198L514.659 76.6717C506.046 75.2815 497.38 74.2889 488.662 73.6937V73.7278ZM488.662 230.499V324.739H695.645V230.465L488.662 230.499ZM694.888 436.193L695.617 327.649H488.662V491.589C501.995 492.149 515.347 491.99 528.662 491.112H528.894C535.254 490.712 541.584 490.131 547.885 489.368H548.028C581.643 485.455 614.512 476.684 645.608 463.329L694.888 436.193ZM735.556 245.989C734.779 244.156 733.968 242.336 733.144 240.537C731.604 237.13 729.975 233.818 728.299 230.506H712.149V324.739H752.98C752.959 298.053 746.206 270.794 735.576 245.955L735.556 245.989ZM712.149 327.683V421.044C723.651 410.018 733.368 397.404 740.367 382.984C748.782 365.62 752.632 346.819 752.946 327.669L712.149 327.683ZM712.149 203.029V227.562H726.786C722.358 219.117 717.479 210.916 712.169 202.995L712.149 203.029ZM571.776 92.2228C570.699 91.8139 569.622 91.3982 568.539 90.9961C557.112 86.776 545.435 83.2666 533.575 80.4879L493.794 124.149L493.03 124.96L493.541 125.519H635.128C615.409 111.945 594.15 100.756 571.796 92.1887L571.776 92.2228ZM639.277 128.456H491.565L488.662 131.114V227.555H514.107H514.148H695.672V180.841C679.251 160.98 660.299 143.357 639.298 128.422L639.277 128.456Z" fill="#332DA0"/>
<path opacity="0.1" d="M78.589 178.428V227.555H9.64941C9.64941 227.269 9.69711 226.976 9.71756 226.69C9.77888 225.906 9.84021 225.123 9.90835 224.346C9.98331 223.432 10.0651 222.513 10.1537 221.62C10.2423 220.727 10.3377 219.637 10.4399 218.649C10.5421 217.66 10.6375 216.659 10.7533 215.671C10.8692 214.682 10.9714 213.694 11.094 212.713C11.2167 211.732 11.3257 210.737 11.4552 209.755C11.5574 208.938 11.6664 208.127 11.7755 207.309C11.9322 206.157 12.0957 204.999 12.2729 203.854C12.2729 203.684 12.3206 203.506 12.3479 203.343C13.5916 194.962 15.2862 186.654 17.4245 178.456L78.589 178.428Z" fill="#332DA0"/>
<path opacity="0.1" d="M9.43103 230.472H78.5887V324.739H14.494C14.3237 325.707 14.1601 326.681 13.9829 327.656H78.5887V403.68C78.4728 403.646 78.3706 403.605 78.2616 403.564C76.4354 402.842 74.6228 402.079 72.8102 401.261L71.6518 400.736C69.8347 399.878 68.0175 398.969 66.2004 398.01C65.5667 397.677 64.933 397.329 64.306 396.975C54.2181 391.323 45.0538 384.162 37.1309 375.74C36.8992 375.515 36.6812 375.277 36.4495 375.059C35.3456 373.859 34.2621 372.646 33.2127 371.406L32.0543 370.043C30.8141 368.523 29.6148 366.963 28.4496 365.382C28.2792 365.15 28.1157 364.918 27.9385 364.7C23.1995 358.129 19.2647 351.014 16.218 343.507C16.1226 343.282 16.0408 343.037 15.9523 342.825C15.0164 340.417 14.1874 337.987 13.4651 335.534C13.1516 334.505 12.8518 333.489 12.5928 332.419C12.4974 332.106 12.4157 331.799 12.3407 331.493C8.47022 316.384 8.01367 300.69 8.01367 285.105C8.01367 283.286 8.01367 281.459 8.01367 279.653C8.01367 273.35 8.08863 267.005 8.19766 260.668C8.19766 259.025 8.2658 257.39 8.29987 255.741C8.39527 251.557 8.53155 247.372 8.70872 243.188C8.74961 242.023 8.80412 240.864 8.86545 239.706C8.86545 239.038 8.89952 238.37 8.96767 237.702C9.13121 235.276 9.26749 232.871 9.43103 230.472Z" fill="#332DA0"/>
<path opacity="0.1" d="M147.099 142.617V227.555H95.0996V142.617H102.513V113.859H132.946V142.617H147.099Z" fill="#332DA0"/>
<path opacity="0.1" d="M147.099 230.465H95.1064V324.732H147.099V230.465Z" fill="#332DA0"/>
<path opacity="0.1" d="M95.0996 327.656H147.099V406.024C140.965 407.787 134.715 409.115 128.394 409.997L126.84 410.188C126.077 410.277 125.321 410.352 124.571 410.427C123.822 410.502 123.045 410.556 122.288 410.604H122.05C121.723 410.604 121.368 410.645 121.048 410.652H120.701C120.292 410.652 119.883 410.692 119.474 410.706C118.895 410.74 118.316 410.747 117.723 410.754C117.471 410.754 117.232 410.754 116.98 410.754C116.394 410.754 115.815 410.754 115.229 410.754H113.941C113.593 410.754 113.26 410.754 112.898 410.754L111.583 410.706C110.902 410.706 110.166 410.631 109.457 410.583L108.149 410.488L106.52 410.338C105.375 410.236 104.237 410.106 103.113 409.95L101.75 409.759L101.069 409.663C99.9309 409.486 98.8065 409.295 97.6618 409.077C96.8236 408.934 95.9923 408.757 95.1473 408.587L95.0996 327.656Z" fill="#332DA0"/>
<path opacity="0.1" d="M472.145 132.586H429.27V227.549H472.145V132.586Z" fill="#332DA0"/>
<path opacity="0.1" d="M472.151 230.465V324.739H259.336V284.076H372.691V308.064H429.269V230.465H472.151Z" fill="#332DA0"/>
<path opacity="0.1" d="M472.826 428.731H472.144V490.574C464.467 489.924 456.812 489.041 449.18 487.923C414.821 482.892 381.325 473.118 349.652 458.879C340.507 454.763 331.549 450.27 322.776 445.4C308.123 437.281 294.085 428.1 280.774 417.93C277.43 415.367 274.13 412.746 270.872 410.066C268.617 408.205 266.375 406.297 264.106 404.443C262.532 403.169 260.944 401.915 259.336 400.716V327.656H428.704C428.588 327.22 428.472 326.784 428.349 326.354C428.479 326.784 428.601 327.22 428.717 327.656H472.144V428.69C472.376 428.697 472.601 428.717 472.826 428.731Z" fill="#332DA0"/>
<path opacity="0.1" d="M583.966 125.513H556.027V116.831H568.552V90.969C569.638 91.3642 570.719 91.7709 571.795 92.1888V116.831H583.966V125.513Z" fill="#332DA0"/>
<path opacity="0.1" d="M651.277 227.555H514.12C514.12 227.555 514.12 227.555 514.168 227.589L514.106 227.555H488.662V132.593H495.872V202.784H528.818V161.215H556.034V128.429H583.973V161.242H611.189V202.811H651.277V227.555Z" fill="#332DA0"/>
<path opacity="0.1" d="M488.662 230.465V324.739H651.277V230.465H488.662ZM695.42 435.709L695.644 361.089H651.277V327.697H488.662V491.589C501.994 492.149 515.347 491.99 528.662 491.112H528.893C535.253 490.712 541.584 490.131 547.885 489.368H548.028C581.643 485.455 614.512 476.684 645.607 463.329" fill="#332DA0"/>
<path opacity="0.1" d="M715.038 327.656H752.973C752.639 346.798 748.795 365.6 740.387 382.964C733.389 397.39 723.665 410.004 712.176 421.023V361.054H715.038V327.656Z" fill="#332DA0"/>
<path opacity="0.1" d="M752.993 324.739H715.038V245.955H735.576C746.206 270.794 752.959 298.053 752.993 324.739Z" fill="#332DA0"/>
<path opacity="0.1" d="M472.151 158.986H449.181V188.759H472.151V158.986Z" fill="#332DA0"/>
<path opacity="0.1" d="M472.151 220.7H449.181V227.555H472.151V220.7Z" fill="#332DA0"/>
<path opacity="0.1" d="M472.151 230.465H449.181V250.466H472.151V230.465Z" fill="#332DA0"/>
<path opacity="0.1" d="M472.151 282.413H449.181V312.187H472.151V282.413Z" fill="#332DA0"/>
<path opacity="0.1" d="M472.151 344.127H449.181V373.9H472.151V344.127Z" fill="#332DA0"/>
<path opacity="0.1" d="M472.145 428.69C472.376 428.69 472.601 428.69 472.826 428.731H472.145V435.648H449.181V405.841H472.145V428.69Z" fill="#332DA0"/>
<path opacity="0.1" d="M472.145 467.541V490.54C464.467 489.89 456.813 489.007 449.181 487.889V467.541H472.145Z" fill="#332DA0"/>
<path opacity="0.1" d="M357.781 322.552H259.336V324.739H357.781V322.552Z" fill="#332DA0"/>
<path opacity="0.1" d="M357.781 327.649H259.336V336.031H357.781V327.649Z" fill="#332DA0"/>
<path opacity="0.1" d="M357.781 363.508H259.336V376.987H357.781V363.508Z" fill="#332DA0"/>
<path opacity="0.1" d="M357.775 404.464V417.943H280.774C277.431 415.39 274.128 412.769 270.866 410.079C268.611 408.219 266.376 406.311 264.1 404.464H357.775Z" fill="#332DA0"/>
<path opacity="0.1" d="M357.774 445.413V458.879H349.645C340.509 454.758 331.553 450.263 322.776 445.393L357.774 445.413Z" fill="#332DA0"/>
<path opacity="0.1" d="M548.049 239.604H528.669V258.984H548.049V239.604Z" fill="#332DA0"/>
<path opacity="0.1" d="M128.441 149.302H109.062V168.683H128.441V149.302Z" fill="#332DA0"/>
<path opacity="0.1" d="M128.441 194.32H109.062V213.701H128.441V194.32Z" fill="#332DA0"/>
<path opacity="0.1" d="M128.441 239.338H109.062V258.719H128.441V239.338Z" fill="#332DA0"/>
<path opacity="0.1" d="M128.441 284.349H109.062V303.73H128.441V284.349Z" fill="#332DA0"/>
<path opacity="0.1" d="M128.441 329.366H109.062V348.747H128.441V329.366Z" fill="#332DA0"/>
<path opacity="0.1" d="M128.441 374.384H109.062V393.765H128.441V374.384Z" fill="#332DA0"/>
<path opacity="0.1" d="M622.03 239.604H602.65V258.984H622.03V239.604Z" fill="#332DA0"/>
<path opacity="0.1" d="M548.049 287.408H528.669V306.789H548.049V287.408Z" fill="#332DA0"/>
<path opacity="0.1" d="M622.03 287.408H602.65V306.789H622.03V287.408Z" fill="#332DA0"/>
<path opacity="0.1" d="M548.049 335.207H528.669V354.587H548.049V335.207Z" fill="#332DA0"/>
<path opacity="0.1" d="M622.03 335.207H602.65V354.587H622.03V335.207Z" fill="#332DA0"/>
<path opacity="0.1" d="M548.049 383.011H528.669V402.392H548.049V383.011Z" fill="#332DA0"/>
<path opacity="0.1" d="M622.03 383.011H602.65V402.392H622.03V383.011Z" fill="#332DA0"/>
<path opacity="0.1" d="M548.049 430.816H528.669V450.197H548.049V430.816Z" fill="#332DA0"/>
<path opacity="0.1" d="M622.03 430.816H602.65V450.197H622.03V430.816Z" fill="#332DA0"/>
<path opacity="0.1" d="M528.669 491.112V478.614H548.042V489.334L528.669 491.112Z" fill="#332DA0"/>
<path opacity="0.1" d="M12.2656 203.329V214.417H78.5886V203.329H12.2656ZM18.8754 213.721H13.4649V204.011H18.9163L18.8754 213.721ZM25.4784 213.721H20.027V204.011H25.4784V213.721ZM32.0678 213.721H26.6164V204.011H32.0678V213.721ZM38.6708 213.721H33.2262V204.011H38.6776L38.6708 213.721ZM45.267 213.721H39.8156V204.011H45.267V213.721ZM51.8699 213.721H46.4186V204.011H51.8699V213.721ZM58.4729 213.721H53.0216V204.011H58.4729V213.721ZM65.0691 213.721H59.6177V204.011H65.0691V213.721ZM71.6653 213.721H66.2139V204.011H71.6653V213.721ZM78.2615 213.721H72.8101V204.011H78.2615V213.721Z" fill="#332DA0"/>
<path opacity="0.1" d="M12.2656 235.59V246.677H78.5886V235.59H12.2656ZM18.8754 245.975H13.4649V236.292H18.9163L18.8754 245.975ZM25.4784 245.975H20.027V236.292H25.4784V245.975ZM32.0678 245.975H26.6164V236.292H32.0678V245.975ZM38.6708 245.975H33.2262V236.292H38.6776L38.6708 245.975ZM45.267 245.975H39.8156V236.292H45.267V245.975ZM51.8699 245.975H46.4186V236.292H51.8699V245.975ZM58.4729 245.975H53.0216V236.292H58.4729V245.975ZM65.0691 245.975H59.6177V236.292H65.0691V245.975ZM71.6653 245.975H66.2139V236.292H71.6653V245.975ZM78.2615 245.975H72.8101V236.292H78.2615V245.975Z" fill="#332DA0"/>
<path opacity="0.1" d="M12.2656 267.864V278.972H78.5886V267.864H12.2656ZM18.8754 278.25H13.4649V268.559H18.9163L18.8754 278.25ZM25.4784 278.25H20.027V268.559H25.4784V278.25ZM32.0678 278.25H26.6164V268.559H32.0678V278.25ZM38.6708 278.25H33.2262V268.559H38.6776L38.6708 278.25ZM45.267 278.25H39.8156V268.559H45.267V278.25ZM51.8699 278.25H46.4186V268.559H51.8699V278.25ZM58.4729 278.25H53.0216V268.559H58.4729V278.25ZM65.0691 278.25H59.6177V268.559H65.0691V278.25ZM71.6653 278.25H66.2139V268.559H71.6653V278.25ZM78.2615 278.25H72.8101V268.559H78.2615V278.25Z" fill="#332DA0"/>
<path opacity="0.1" d="M12.2656 300.138V311.212H78.5886V300.138H12.2656ZM18.8754 310.524H13.4649V300.826H18.9163L18.8754 310.524ZM25.4784 310.524H20.027V300.826H25.4784V310.524ZM32.0678 310.524H26.6164V300.826H32.0678V310.524ZM38.6708 310.524H33.2262V300.826H38.6776L38.6708 310.524ZM45.267 310.524H39.8156V300.826H45.267V310.524ZM51.8699 310.524H46.4186V300.826H51.8699V310.524ZM58.4729 310.524H53.0216V300.826H58.4729V310.524ZM65.0691 310.524H59.6177V300.826H65.0691V310.524ZM71.6653 310.524H66.2139V300.826H71.6653V310.524ZM78.2615 310.524H72.8101V300.826H78.2615V310.524Z" fill="#332DA0"/>
<path opacity="0.1" d="M12.5518 332.406C12.8175 333.448 13.1173 334.491 13.4308 335.52V333.101H18.8822V342.791H15.9657C16.0543 343.016 16.1429 343.262 16.2314 343.473H78.5885V332.406H12.5518ZM25.4988 342.791H20.0474V333.101H25.4988V342.791ZM32.0882 342.791H26.6368V333.101H32.0882V342.791ZM38.6912 342.791H33.2261V333.101H38.6775L38.6912 342.791ZM45.2873 342.791H39.8359V333.101H45.2873V342.791ZM51.8903 342.791H46.4389V333.101H51.8903V342.791ZM58.4933 342.791H53.0419V333.101H58.4933V342.791ZM65.0895 342.791H59.6381V333.101H65.0895V342.791ZM71.6857 342.791H66.2343V333.101H71.6857V342.791ZM78.2819 342.791H72.8305V333.101H78.2819V342.791Z" fill="#332DA0"/>
<path opacity="0.1" d="M27.9521 364.68C28.1225 364.898 28.286 365.143 28.4632 365.361H32.0679V370.016C32.4564 370.479 32.838 370.943 33.2332 371.379V365.334H38.6846V375.059H36.4767C36.6948 375.284 36.906 375.522 37.1582 375.74H78.6091V364.68H27.9521ZM45.2671 375.059H39.8157V365.375H45.2671V375.059ZM51.8701 375.059H46.4187V365.375H51.8701V375.059ZM58.4731 375.059H53.0217V365.375H58.4731V375.059ZM65.0693 375.059H59.6179V365.375H65.0693V375.059ZM71.6654 375.059H66.2141V365.375H71.6654V375.059ZM78.2616 375.059H72.8102V365.375H78.2616V375.059Z" fill="#332DA0"/>
<path opacity="0.1" d="M64.333 396.947C64.9531 397.302 65.5868 397.629 66.2274 397.983V397.642H71.6788V400.709L72.8372 401.247V397.642H78.2886V403.537C78.3931 403.589 78.5027 403.63 78.6156 403.66V396.947H64.333Z" fill="#332DA0"/>
<path opacity="0.1" d="M514.121 227.555H514.162H514.121ZM472.145 428.683H472.826H472.145ZM428.35 326.347C428.479 326.784 428.588 327.22 428.711 327.649C428.602 327.22 428.486 326.784 428.35 326.347ZM514.121 227.535H514.162H514.121ZM102.541 125.492V128.402H132.98V125.492H102.541ZM472.145 428.683H472.826H472.145ZM428.35 326.347C428.479 326.784 428.588 327.22 428.711 327.649C428.602 327.22 428.486 326.784 428.35 326.347ZM514.121 227.535H514.162H514.121ZM472.145 428.663H472.826H472.145ZM428.35 326.347C428.479 326.784 428.588 327.22 428.711 327.649C428.602 327.22 428.486 326.784 428.35 326.347Z" fill="#332DA0"/>
<path d="M314.545 258.732C314.545 258.732 311.86 258.358 311.86 254.446C311.86 250.534 309.939 243.229 309.939 243.229C309.939 243.195 308.276 230.506 305.98 228.489C303.683 226.472 300.733 214.628 300.733 214.628C300.733 214.628 300.228 208.202 299.199 206.818C298.17 205.435 296.78 202.048 294.729 197.216C292.678 192.385 284.126 189.039 284.126 189.039C284.126 189.039 268.665 180.071 264.283 177.147C263.885 176.907 263.513 176.626 263.173 176.309C262.409 175.307 259.084 175.287 259.084 175.287C258.736 173.093 258.403 170.571 258.294 168.288C258.294 168.043 258.294 167.798 258.259 167.552C263.145 164.664 266.825 160.11 268.624 154.727C268.706 154.468 268.774 154.195 268.849 153.936C269.142 153.84 269.411 153.684 269.64 153.477C269.869 153.271 270.052 153.019 270.178 152.737C270.573 151.858 270.58 150.829 271.07 150.011C271.643 149.044 272.733 148.526 273.591 147.796C275.758 145.957 276.317 142.856 276.215 140.035C276.147 137.752 275.779 135.448 275.922 133.179L275.963 132.607C276.004 132.266 276.051 131.925 276.113 131.598C276.447 129.908 277.176 128.313 277.585 126.637C277.993 124.961 278.034 123.073 277.08 121.628C275.683 119.509 272.774 119.086 270.218 118.868C267.322 118.623 264.733 118.943 262.88 116.538C262.012 115.28 261.036 114.101 259.963 113.014C259.581 112.66 255.874 110.398 255.874 110.248C252.257 108.572 248.156 108.257 244.324 109.362C242.403 109.921 240.59 110.834 238.641 111.29C234.437 112.285 229.599 111.209 226.028 113.614C224.038 114.977 222.846 117.144 221.728 119.257C220.82 120.997 219.898 122.734 218.962 124.47C217.456 127.325 215.923 130.228 215.289 133.39C215.156 134.078 215.074 134.775 215.044 135.476V135.51C215.044 135.762 215.044 136.014 215.044 136.266V136.586C215.044 136.825 215.044 137.057 215.084 137.268C215.125 137.479 215.119 137.547 215.139 137.69C215.159 137.833 215.194 138.154 215.234 138.372C215.275 138.59 215.357 138.971 215.439 139.271C215.473 139.401 215.521 139.523 215.561 139.646C215.63 139.878 215.711 140.103 215.8 140.328C215.848 140.443 215.895 140.566 215.95 140.682C216.052 140.92 216.175 141.152 216.297 141.363C216.352 141.459 216.393 141.547 216.447 141.636C216.637 141.953 216.847 142.258 217.074 142.549C218.532 144.369 220.679 145.527 222.267 147.231C222.267 147.299 222.267 147.367 222.267 147.428C222.267 147.619 222.267 147.803 222.267 147.994C222.351 151.794 223.362 155.515 225.212 158.835C227.063 162.154 229.696 164.971 232.883 167.041C232.883 167.3 232.917 167.566 232.931 167.825C233.064 169.848 233.039 171.878 232.856 173.897C232.579 173.57 232.231 173.309 231.84 173.135C231.448 172.96 231.022 172.876 230.594 172.888C230.301 172.874 230.008 172.899 229.721 172.963L229.66 172.915V172.977C228.161 173.345 226.314 174.905 224.549 179.342C224.549 179.342 219.18 185.393 215.091 185.141C211.003 184.889 200.652 191.438 200.652 191.438C200.652 191.438 190.553 197.993 188.386 204.672C187.175 208.459 185.723 212.164 184.039 215.766L171.555 241.491L169.252 261.901C169.252 261.901 170.526 270.978 170.274 272.362C170.022 273.745 175.514 286.223 175.514 286.223C175.514 286.223 193.661 318.109 201.074 319.744L201.606 319.369C201.923 319.535 202.26 319.661 202.608 319.744L204.134 318.667C204.226 319.867 204.187 321.074 204.018 322.266C202.996 325.414 204.4 345.96 206.185 349.988C207.97 354.015 207.337 406.822 207.337 406.822L207.085 411.483C207.085 411.483 207.085 411.633 207.146 411.892L207.085 412.996L207.269 413.091C207.46 414.57 207.397 416.07 207.085 417.528C206.444 419.572 206.185 425.351 206.185 425.351C206.185 425.351 201.081 457.98 203.5 464.535C205.919 471.091 207.977 478.274 207.977 478.274C207.977 478.274 210.533 486.451 208.1 487.848C205.667 489.245 198.751 491.59 200.175 494.997C201.47 498.145 206.383 506.582 207.112 507.815L207.051 508.463L206.049 519.318C206.211 520.752 206.6 522.15 207.2 523.462C208.298 525.826 210.43 528.28 214.485 528.014C215.166 527.966 215.957 527.884 216.72 527.782C224.141 526.787 233.278 523.475 233.278 523.475C232.804 523.174 232.369 522.815 231.984 522.405C231.619 522.052 231.33 521.628 231.134 521.16C230.939 520.691 230.841 520.187 230.846 519.68C230.955 517.703 227.255 508.285 226.335 505.968C226.192 505.635 226.117 505.444 226.117 505.444C226.117 505.444 234.553 496.626 233.149 488.809C233.149 488.809 223.814 483.357 226.887 480.366C229.96 477.374 235.452 468.781 235.452 468.781C235.452 468.781 235.704 436.65 235.452 431.852C235.189 428.522 235.347 425.173 235.922 421.882C236.025 421.385 236.147 420.901 236.277 420.424C240.527 421.058 244.818 421.384 249.115 421.398C250.682 421.398 252.277 421.398 253.885 421.303C253.885 421.757 253.905 422.248 253.946 422.775C254.3 430.735 254.961 444.691 255.5 449.877C256.263 457.312 260.481 477.347 260.481 477.347C260.481 477.347 252.433 482.512 261.885 495.242C261.885 495.242 261.885 499.856 261.258 500.524C260.588 502.707 260.049 504.928 259.643 507.175C259.248 509.573 259.084 511.999 259.725 513.26C261.258 516.272 270.457 516.027 270.457 516.027L270.682 515.986C272.419 515.806 274.174 515.974 275.845 516.478C277.517 516.982 279.072 517.813 280.419 518.923C283.915 521.731 297.182 520.497 304.365 519.605C307.179 519.25 309.06 518.923 309.06 518.923C309.151 518.605 309.183 518.272 309.155 517.942C309.08 516.177 307.697 512.306 298.32 508.851C298.32 508.851 289.503 502.922 289.625 497.757H289.441H288.419C289.162 497.716 289.639 497.757 289.639 497.757C289.639 497.757 286.184 485.15 287.595 484.127C289.005 483.105 284.78 469.135 284.78 469.135C284.78 469.135 282.361 445.693 282.232 444.05C282.237 442.641 282.451 441.24 282.866 439.893L282.232 427.041C282.232 427.041 282.109 422.768 282.232 421.378C282.211 420.171 282.113 418.967 281.939 417.773C281.878 417.296 281.816 416.799 281.748 416.308C285.053 415.47 287.2 414.693 287.2 414.693L286.818 369.955C289.625 364.503 290.143 352.543 290.13 344.059C290.13 338.607 289.884 334.573 289.884 334.573L293.721 328.31C293.721 328.31 294.607 320.814 293.203 319.172C292.583 318.429 292.862 317.659 293.373 317.025C293.639 316.815 293.919 316.623 294.211 316.453C294.211 316.453 294.17 316.391 294.123 316.303C294.391 316.079 294.675 315.876 294.975 315.696C294.975 315.696 293.612 313.584 294.831 312.691C295.976 313.468 296.998 314.054 297.775 314.531C297.721 315.028 297.666 315.315 297.666 315.315L297.993 314.633C298.743 315.056 299.199 315.315 299.199 315.315C299.199 315.315 305.21 303.341 305.08 301.576C304.951 299.811 309.169 292.376 309.169 292.376C309.169 292.376 309.68 288.472 311.983 286.836C314.286 285.201 313.768 273.35 313.768 273.35C313.768 273.35 314.409 267.176 315.942 264.654C317.475 262.133 314.545 258.732 314.545 258.732ZM199.548 253.478L199.664 256.334C198.982 255.236 198.492 254.446 198.492 254.446L199.548 253.478Z" fill="url(#paint0_linear)"/>
<path d="M299.527 310.142L298.055 316.412C298.055 316.412 286.266 310.394 284.14 302.748C282.014 295.102 287.697 292.199 287.697 292.199L298.682 296.854L299.527 310.142Z" fill="white"/>
<path opacity="0.1" d="M299.527 310.142L298.055 316.412C298.055 316.412 286.266 310.394 284.14 302.748C282.014 295.102 287.697 292.199 287.697 292.199L298.682 296.854L299.527 310.142Z" fill="black"/>
<path d="M233.367 523.516C233.367 523.516 222.464 527.523 214.969 528.027C210.989 528.293 208.897 525.854 207.821 523.503C207.232 522.196 206.853 520.804 206.696 519.38L207.671 508.578L208.189 502.827L224.113 498.69L226.369 505.587L226.58 506.112C227.487 508.415 231.118 517.785 231.009 519.741C231.005 520.242 231.102 520.738 231.294 521.201C231.486 521.663 231.769 522.082 232.127 522.433C232.493 522.845 232.909 523.209 233.367 523.516Z" fill="white"/>
<path d="M307.84 518.023C307.867 518.351 307.835 518.681 307.744 518.998C307.744 518.998 284.426 522.889 279.656 518.998C278.311 517.861 276.743 517.018 275.054 516.523C273.364 516.028 271.589 515.891 269.843 516.122C269.843 516.122 260.821 516.367 259.315 513.396C258.689 512.149 258.852 509.73 259.24 507.345C259.637 505.11 260.165 502.9 260.821 500.728L261.183 500.442L263.329 498.717L288.46 497.975H288.651C288.528 503.113 297.182 509.008 297.182 509.008C306.374 512.415 307.731 516.265 307.84 518.023Z" fill="white"/>
<path opacity="0.1" d="M307.84 518.024C307.864 518.352 307.829 518.682 307.738 518.998C307.738 518.998 284.426 522.889 279.656 518.998C278.312 517.862 276.746 517.02 275.057 516.524C273.369 516.029 271.595 515.892 269.851 516.122C269.851 516.122 260.822 516.368 259.323 513.396C258.696 512.143 258.852 509.73 259.241 507.345C262.716 507.693 268.201 508.558 270.355 510.623C273.612 513.764 279.132 516.899 282.518 517.144C285.169 517.315 301.026 517.819 307.84 518.024Z" fill="black"/>
<path opacity="0.1" d="M233.367 523.516C233.367 523.516 222.464 527.523 214.968 528.027C210.989 528.293 208.897 525.854 207.827 523.496C210.601 524.429 214.451 525.411 216.474 524.511C218.873 523.448 227.377 522.76 232.147 522.467C232.51 522.864 232.92 523.217 233.367 523.516Z" fill="black"/>
<path d="M249.544 200.603C240.549 197.107 228.978 185.557 231.868 180.159C232.509 178.797 232.891 177.327 232.992 175.825C233.178 173.786 233.205 171.735 233.074 169.692C232.871 166.345 232.468 163.014 231.868 159.715C231.868 159.715 259.949 160.349 258.314 164.486C257.837 165.699 257.762 167.804 257.891 170.162C258.021 172.52 258.361 175.185 258.716 177.44C259.206 180.534 259.697 182.892 259.697 182.892C259.697 182.892 257.98 185.298 256.971 185.427C255.963 185.557 262.45 205.585 249.544 200.603Z" fill="#CF6F80"/>
<path opacity="0.1" d="M226.56 506.112L226.349 506.343C217.954 496.189 207.8 508.844 207.8 508.844L207.65 508.579L208.168 502.827L224.093 498.69L226.349 505.587L226.56 506.112Z" fill="black"/>
<path opacity="0.1" d="M288.657 498.69C288.657 498.69 282.525 498.561 279.254 501.45C275.983 504.34 260.174 502.077 260.855 501.45C261.057 501.14 261.179 500.784 261.21 500.414L263.356 498.69L288.487 497.948C288.582 498.404 288.657 498.69 288.657 498.69Z" fill="black"/>
<path d="M237.005 418.952C236.549 420.081 236.202 421.252 235.97 422.448C235.401 425.723 235.243 429.056 235.499 432.37C235.752 437.14 235.499 469.108 235.499 469.108C235.499 469.108 230.109 477.633 227.104 480.638C224.099 483.644 233.237 489.041 233.237 489.041C234.6 496.809 226.341 505.587 226.341 505.587C217.946 495.433 207.793 508.095 207.793 508.095C207.793 508.095 202.273 498.554 200.897 495.147C199.52 491.739 206.287 489.381 208.665 487.998C211.043 486.615 208.549 478.458 208.549 478.458C208.549 478.458 206.539 471.309 204.154 464.787C201.769 458.266 206.784 425.801 206.784 425.801C206.784 425.801 207.043 420.035 207.663 418.025C207.976 416.574 208.038 415.081 207.847 413.609C207.806 413.112 207.759 412.696 207.725 412.417C207.691 412.137 207.663 412.008 207.663 412.008L207.759 411.844L211.166 405.493C211.166 405.493 238.641 414.952 237.005 418.952Z" fill="#332DA0"/>
<path d="M288.657 497.941C288.657 497.941 282.525 497.811 279.254 500.667C275.983 503.522 260.174 501.294 260.855 500.667C261.537 500.04 261.482 495.399 261.482 495.399C252.208 482.737 260.119 477.599 260.119 477.599C260.119 477.599 255.976 457.666 255.227 450.272C254.702 445.107 254.055 431.225 253.707 423.3C253.557 419.892 253.469 417.548 253.469 417.548L261.046 416.022L262.021 415.824L280.296 412.158C280.296 412.158 280.801 415.565 281.141 418.352C281.311 419.542 281.407 420.742 281.428 421.944C281.305 423.307 281.428 427.572 281.428 427.572L282.048 440.364C281.642 441.705 281.434 443.099 281.428 444.5C281.55 446.129 283.928 469.449 283.928 469.449C283.928 469.449 288.065 483.364 286.654 484.366C285.243 485.368 288.657 497.941 288.657 497.941Z" fill="#332DA0"/>
<path opacity="0.1" d="M258.314 164.486C257.837 165.699 257.762 167.804 257.892 170.162C254.13 172.427 249.806 173.586 245.416 173.504C241.026 173.422 236.748 172.103 233.074 169.699C232.872 166.35 232.469 163.016 231.868 159.715C231.868 159.715 259.95 160.335 258.314 164.486Z" fill="black"/>
<path d="M269.169 149.425C269.175 151.881 268.788 154.322 268.025 156.656C266.317 161.885 262.817 166.342 258.141 169.24C253.465 172.138 247.916 173.289 242.474 172.491C237.031 171.692 232.046 168.996 228.4 164.877C224.753 160.758 222.68 155.483 222.546 149.984C222.546 149.793 222.546 149.616 222.546 149.425C222.493 146.33 223.057 143.255 224.205 140.379C225.353 137.504 227.062 134.886 229.232 132.679C231.403 130.471 233.991 128.717 236.846 127.52C239.701 126.323 242.766 125.707 245.861 125.707C248.957 125.707 252.022 126.323 254.877 127.52C257.732 128.717 260.32 130.471 262.49 132.679C264.66 134.886 266.369 137.504 267.517 140.379C268.665 143.255 269.229 146.33 269.176 149.425H269.169Z" fill="#CF6F80"/>
<path opacity="0.1" d="M249.544 200.603C240.549 197.107 228.978 185.557 231.868 180.159C232.509 178.797 232.891 177.327 232.992 175.825L245.305 185.945L252.924 192.194L258.716 177.447C259.206 180.541 259.697 182.899 259.697 182.899C259.697 182.899 257.98 185.304 256.971 185.434C255.963 185.563 262.45 205.585 249.544 200.603Z" fill="black"/>
<path d="M281.387 245.328L271.104 418.08L257.694 418.959L222.969 318.79L228.665 199.867L229.865 174.742L245.306 187.424L252.931 193.673L258.893 178.497L269.98 188.16L281.387 245.328Z" fill="#332DA0"/>
<path opacity="0.1" d="M237.006 418.952C236.549 420.081 236.203 421.252 235.97 422.448C226.212 420.941 216.735 417.98 207.855 413.664L207.671 413.568L207.732 412.471L207.766 411.899L211.173 405.547C211.173 405.547 238.642 414.952 237.006 418.952Z" fill="black"/>
<path opacity="0.1" d="M261.203 422.475C258.708 422.899 256.192 423.186 253.666 423.334C253.516 419.926 253.428 417.582 253.428 417.582L261.005 416.056L261.203 422.475Z" fill="black"/>
<path opacity="0.1" d="M281.101 418.386C276.256 419.647 268.774 421.064 262.076 420.178L261.98 415.858L280.256 412.192C280.256 412.192 280.76 415.565 281.101 418.386Z" fill="black"/>
<path opacity="0.1" d="M261.953 420.969C234.015 425.739 208.427 412.062 208.427 412.062L208.672 407.428C208.672 407.428 209.306 354.894 207.548 350.867C205.79 346.839 204.42 326.416 205.415 323.281C206.41 320.146 201.783 273.139 201.783 273.139L201.034 254.058L173.6 242.943L185.865 217.374C187.522 213.789 188.947 210.102 190.131 206.335C192.264 199.697 202.165 193.175 202.165 193.175C202.165 193.175 212.318 186.661 216.332 186.906C220.345 187.151 225.606 181.141 225.606 181.141C229.49 171.239 233.006 175.723 233.006 175.723C233.006 176.193 233.006 175.723 232.815 177.188C231.452 188.058 254.853 222.403 255.186 223.01L257.415 277.296L259.67 345.994L261.953 420.969Z" fill="black"/>
<path d="M261.203 420.969C233.265 425.739 207.67 412.062 207.67 412.062L207.922 407.428C207.922 407.428 208.556 354.894 206.791 350.867C205.026 346.839 203.664 326.416 204.665 323.281C205.667 320.146 201.033 273.139 201.033 273.139L200.277 254.057L172.829 242.902L185.095 217.333C186.748 213.747 188.173 210.06 189.36 206.293C191.486 199.656 201.394 193.134 201.394 193.134C201.394 193.134 211.548 186.62 215.554 186.865C219.561 187.11 224.829 181.1 224.829 181.1C228.719 171.198 233.006 175.682 233.006 175.682C233.006 176.152 232.597 176.363 232.815 177.147C235.813 187.689 254.102 222.362 254.436 222.969L256.692 277.255L258.947 345.953L261.203 420.969Z" fill="white"/>
<path opacity="0.1" d="M253.674 224.516C250.669 223.262 234.751 205.087 234.751 205.087V200.951C234.172 199.588 230.73 200.419 227.937 201.373L229.136 176.248L230.499 177.379C233.483 187.914 253.326 223.909 253.674 224.516Z" fill="black"/>
<path d="M254.43 223.01C251.418 221.756 235.5 203.581 235.5 203.581V199.445C234.921 198.082 231.479 198.913 228.686 199.867L229.892 174.742L231.255 175.873C234.246 186.408 254.096 222.41 254.43 223.01Z" fill="white"/>
<path opacity="0.1" d="M208.427 313.652C208.802 313.652 227.854 311.648 227.854 311.648C227.854 311.648 239.391 334.334 238.634 339.854C237.878 345.374 236.508 350.26 231.868 349.395C227.227 348.529 206.894 350.076 206.894 350.076L208.427 313.652Z" fill="black"/>
<path d="M207.671 312.146C208.046 312.146 227.098 310.142 227.098 310.142C227.098 310.142 238.628 332.835 237.878 338.348C237.129 343.861 235.746 348.754 231.112 347.889C226.478 347.023 206.138 348.57 206.138 348.57L207.671 312.146Z" fill="white"/>
<path d="M222.028 301.494C222.028 301.494 239.514 310.892 239.888 313.761C240.263 316.63 230.989 312.507 228.986 312.009C227.667 311.692 226.325 311.482 224.972 311.382L211.609 311.744L222.028 301.494Z" fill="#CF6F80"/>
<path opacity="0.1" d="M248.795 225.688C249.811 225.688 250.635 224.864 250.635 223.848C250.635 222.832 249.811 222.008 248.795 222.008C247.779 222.008 246.955 222.832 246.955 223.848C246.955 224.864 247.779 225.688 248.795 225.688Z" fill="black"/>
<path d="M248.795 224.938C249.811 224.938 250.635 224.115 250.635 223.099C250.635 222.082 249.811 221.259 248.795 221.259C247.779 221.259 246.955 222.082 246.955 223.099C246.955 224.115 247.779 224.938 248.795 224.938Z" fill="#3F3D56"/>
<path opacity="0.1" d="M252.181 305.338C253.197 305.338 254.02 304.514 254.02 303.498C254.02 302.482 253.197 301.658 252.181 301.658C251.165 301.658 250.341 302.482 250.341 303.498C250.341 304.514 251.165 305.338 252.181 305.338Z" fill="black"/>
<path d="M252.181 304.581C253.197 304.581 254.02 303.758 254.02 302.741C254.02 301.725 253.197 300.901 252.181 300.901C251.165 300.901 250.341 301.725 250.341 302.741C250.341 303.758 251.165 304.581 252.181 304.581Z" fill="#3F3D56"/>
<path opacity="0.1" d="M250.628 265.513C251.644 265.513 252.468 264.689 252.468 263.673C252.468 262.657 251.644 261.833 250.628 261.833C249.612 261.833 248.788 262.657 248.788 263.673C248.788 264.689 249.612 265.513 250.628 265.513Z" fill="black"/>
<path d="M250.628 264.763C251.644 264.763 252.468 263.94 252.468 262.923C252.468 261.907 251.644 261.083 250.628 261.083C249.612 261.083 248.788 261.907 248.788 262.923C248.788 263.94 249.612 264.763 250.628 264.763Z" fill="#3F3D56"/>
<path d="M293.039 311.001C293.039 311.001 294.293 312.882 293.039 313.761C291.785 314.64 293.162 316.766 293.162 316.766C293.162 316.766 290.034 318.599 291.41 320.248C292.787 321.897 291.915 329.346 291.915 329.346L288.153 335.574C288.153 335.574 288.378 339.588 288.392 345.013C288.392 353.477 287.894 365.375 285.141 370.799L285.523 415.306C285.523 415.306 272.351 420.117 261.326 418.652L259.69 347.234C259.69 347.234 262.075 306.735 262.954 298.966C263.469 294.933 263.678 290.867 263.581 286.802C263.581 286.802 263.206 274.645 261.946 269.002C261.946 269.002 260.583 244.558 260.447 237.791C260.385 234.554 260.556 225.109 260.746 216.127C260.958 206.307 261.196 197.046 261.196 197.046L258.709 177.365C258.709 177.365 261.196 177.113 261.946 178.115C262.281 178.428 262.647 178.709 263.036 178.953C267.329 181.856 282.497 190.783 282.497 190.783C282.497 190.783 290.893 194.122 292.903 198.906C294.913 203.69 296.31 207.084 297.284 208.447C298.259 209.81 298.79 216.216 298.79 216.216C298.79 216.216 301.68 228.005 303.935 230.002C306.191 231.998 307.84 244.701 307.84 244.701L287.908 260.375C287.908 260.375 286.157 286.448 285.782 287.456C285.407 288.465 293.039 311.001 293.039 311.001Z" fill="white"/>
<path d="M293.795 311.001C293.795 311.001 295.042 312.882 293.795 313.761C292.548 314.64 293.911 316.766 293.911 316.766C293.911 316.766 290.804 318.62 292.167 320.269C293.53 321.918 292.671 329.366 292.671 329.366L288.91 335.595C288.91 335.595 289.134 339.609 289.155 345.033C289.155 353.497 288.657 365.395 285.904 370.82L286.279 415.327C286.279 415.327 273.087 420.138 262.075 418.672L260.446 347.255C260.446 347.255 262.831 306.755 263.71 298.987C264.225 294.953 264.433 290.887 264.331 286.822C264.331 286.822 263.956 274.665 262.702 269.022C262.702 269.022 261.339 244.578 261.196 237.811C261.135 234.574 261.312 225.129 261.496 216.147C261.707 206.328 261.946 197.066 261.946 197.066L258.661 177.12C258.661 177.12 261.946 177.12 262.702 178.135C263.035 178.453 263.4 178.734 263.792 178.973C268.085 181.877 283.261 190.804 283.261 190.804C283.261 190.804 291.649 194.143 293.659 198.927C295.669 203.711 297.066 207.104 298.047 208.467C299.029 209.83 299.547 216.236 299.547 216.236C299.547 216.236 302.436 228.025 304.691 230.022C306.947 232.019 308.575 244.694 308.575 244.694L288.644 260.368C288.644 260.368 286.893 286.441 286.511 287.449C286.129 288.458 293.795 311.001 293.795 311.001Z" fill="white"/>
<path opacity="0.1" d="M269.926 202.852L271.724 208.099L262.253 217.64C262.464 207.827 262.702 198.559 262.702 198.559L259.418 178.612C259.418 178.612 262.702 178.612 263.459 179.628C263.79 179.944 264.156 180.223 264.549 180.459L272.604 203.697L269.926 202.852Z" fill="black"/>
<path d="M269.169 201.346L270.974 206.593L261.503 216.134C261.714 206.314 261.952 197.053 261.952 197.053L258.661 177.106C258.661 177.106 261.952 177.106 262.702 178.122C263.036 178.437 263.401 178.718 263.792 178.96L271.853 202.191L269.169 201.346Z" fill="white"/>
<path opacity="0.1" d="M269.169 149.425C269.175 151.881 268.788 154.322 268.025 156.656C267.896 156.676 267.764 156.67 267.638 156.638C267.512 156.607 267.393 156.55 267.289 156.472C267.112 150.338 264.093 144.58 260.379 139.68C259.336 138.201 258.072 136.891 256.631 135.796C255.174 134.702 253.362 134.189 251.548 134.358C249.504 134.637 247.698 136.028 245.633 136.205C242.907 136.43 240.468 134.542 237.763 134.447C236.663 134.457 235.578 134.702 234.58 135.165C233.583 135.628 232.695 136.298 231.977 137.132C230.556 138.813 229.5 140.772 228.877 142.883C227.805 146.085 227.222 149.43 227.146 152.805C227.112 154.713 226.928 157.105 225.156 157.8C225.29 156.397 225.13 154.981 224.688 153.643C224.246 152.305 223.53 151.072 222.587 150.025L222.546 149.984C222.546 149.793 222.546 149.616 222.546 149.425C222.493 146.33 223.057 143.255 224.205 140.379C225.353 137.504 227.062 134.886 229.232 132.679C231.403 130.471 233.991 128.717 236.846 127.52C239.701 126.323 242.766 125.707 245.861 125.707C248.957 125.707 252.022 126.323 254.877 127.52C257.732 128.717 260.32 130.471 262.49 132.679C264.66 134.886 266.369 137.504 267.517 140.379C268.665 143.255 269.229 146.33 269.176 149.425H269.169Z" fill="black"/>
<path d="M255.513 112.401C251.972 110.735 247.945 110.42 244.188 111.515C242.3 112.074 240.522 112.98 238.607 113.437C234.518 114.425 229.748 113.355 226.239 115.747C224.29 117.11 223.118 119.263 222.028 121.356L219.302 126.548C217.817 129.39 216.317 132.279 215.697 135.407C215.077 138.535 215.452 142.038 217.435 144.553C218.88 146.386 221.012 147.538 222.58 149.262C223.519 150.31 224.231 151.542 224.672 152.878C225.113 154.215 225.273 155.629 225.142 157.03C226.92 156.349 227.091 153.95 227.132 152.042C227.208 148.667 227.791 145.322 228.862 142.12C229.484 140.008 230.54 138.049 231.963 136.368C232.682 135.536 233.569 134.866 234.567 134.403C235.564 133.94 236.649 133.695 237.748 133.683C240.474 133.779 242.92 135.66 245.619 135.435C247.663 135.264 249.476 133.867 251.533 133.595C253.348 133.423 255.161 133.936 256.617 135.033C258.057 136.126 259.32 137.436 260.358 138.917C264.078 143.817 267.097 149.561 267.274 155.708C268.044 156.274 269.155 155.538 269.537 154.666C269.918 153.793 269.932 152.771 270.416 151.94C270.974 150.979 272.044 150.468 272.882 149.745C275.008 147.912 275.54 144.825 275.458 142.024C275.376 139.224 274.831 136.382 275.363 133.629C275.683 131.939 276.405 130.358 276.801 128.688C277.196 127.019 277.244 125.145 276.31 123.707C274.947 121.594 272.078 121.178 269.578 120.981C266.736 120.735 264.194 121.049 262.382 118.657C261.531 117.409 260.573 116.237 259.52 115.154C259.159 114.8 255.513 112.551 255.513 112.401Z" fill="#512E4E"/>
<path opacity="0.1" d="M181.45 256.109L174.329 242.943L172.073 263.257C172.073 263.257 173.327 272.28 173.075 273.663C172.823 275.047 178.213 287.449 178.213 287.449C178.213 287.449 196.018 319.165 203.289 320.8L227.855 303.246L221.34 294.973C221.34 294.973 219.085 294.094 218.519 294.973C218.519 294.973 206.424 274.161 205.17 272.655C203.916 271.149 204.161 268.143 204.161 268.143C204.161 268.143 202.281 266.14 202.908 264.259C203.535 262.378 199.276 255.857 199.276 255.857L203.16 252.224L181.45 256.109Z" fill="black"/>
<path d="M174.704 241.444L172.823 242.943L170.567 263.257C170.567 263.257 171.821 272.28 171.569 273.663C171.317 275.047 176.714 287.449 176.714 287.449C176.714 287.449 194.513 319.165 201.783 320.8L226.356 303.246L219.834 294.973C219.834 294.973 217.579 294.094 217.013 294.973C217.013 294.973 204.918 274.161 203.664 272.655C202.41 271.149 202.662 268.143 202.662 268.143C202.662 268.143 200.782 266.14 201.409 264.259C202.036 262.378 197.77 255.857 197.77 255.857L201.654 252.224L174.704 241.444Z" fill="white"/>
<path opacity="0.1" d="M291.411 321.025C292.774 322.681 291.915 330.116 291.915 330.116L288.153 336.344C288.153 336.344 288.378 340.365 288.392 345.783L282.068 347.759C281.497 347.938 280.891 347.977 280.301 347.873C279.711 347.77 279.155 347.527 278.678 347.165C278.201 346.803 277.818 346.332 277.56 345.792C277.302 345.251 277.178 344.657 277.196 344.059L278.286 308.888L293.039 314.531C291.785 315.403 293.162 317.543 293.162 317.543C293.162 317.543 290.034 319.369 291.411 321.025Z" fill="black"/>
<path d="M292.167 320.269C293.53 321.925 292.672 329.366 292.672 329.366L288.91 335.595C288.91 335.595 289.135 339.609 289.155 345.033L282.716 347.044C282.156 347.218 281.563 347.255 280.986 347.154C280.409 347.052 279.864 346.814 279.397 346.459C278.931 346.105 278.556 345.644 278.303 345.115C278.051 344.586 277.928 344.004 277.946 343.418L279.043 308.139L293.803 313.781C292.542 314.654 293.919 316.786 293.919 316.786C293.919 316.786 290.804 318.62 292.167 320.269Z" fill="white"/>
<path d="M297.053 303.505C297.053 303.505 296.052 309.904 293.544 310.278C291.036 310.653 289.912 320.63 287.411 320.276C284.91 319.921 286.566 311.001 286.655 309.27C286.743 307.539 283.929 300.37 286.035 298.741C288.14 297.112 294.805 298.741 294.805 298.741L297.053 303.505Z" fill="#CF6F80"/>
<path opacity="0.1" d="M302.388 254.228L307.117 244.687C307.117 244.687 308.998 251.959 308.998 255.843C308.998 259.727 311.628 260.109 311.628 260.109C311.628 260.109 314.511 263.516 312.991 265.997C311.472 268.477 310.858 274.651 310.858 274.651C310.858 274.651 311.356 286.434 309.1 288.063C306.845 289.691 306.375 293.582 306.375 293.582C306.375 293.582 302.232 300.976 302.361 302.735C302.491 304.493 296.596 316.398 296.596 316.398C296.596 316.398 299.479 301.603 282.682 295.211C282.682 295.211 282.552 290.189 283.806 288.812C285.06 287.436 287.015 286.809 285.789 279.851C284.562 272.893 285.434 264.579 285.434 262.91C285.434 261.24 289.196 250.827 289.196 250.827L302.388 254.228Z" fill="black"/>
<path d="M304.433 243.324L308.562 244.687C308.562 244.687 310.45 251.959 310.45 255.843C310.45 259.727 313.08 260.109 313.08 260.109C313.08 260.109 315.962 263.516 314.443 265.997C312.923 268.477 312.317 274.651 312.317 274.651C312.317 274.651 312.814 286.434 310.559 288.063C308.303 289.691 307.799 293.583 307.799 293.583C307.799 293.583 303.663 300.977 303.792 302.735C303.922 304.493 298.02 316.398 298.02 316.398C298.02 316.398 300.91 301.603 284.106 295.211C284.106 295.211 283.983 290.189 285.237 288.812C286.491 287.436 288.446 286.809 287.22 279.851C285.993 272.893 286.866 264.579 286.866 262.91C286.866 261.24 290.627 250.827 290.627 250.827L304.433 243.324Z" fill="white"/>
<path opacity="0.1" d="M213.225 490.608C213.225 490.608 219.807 486.472 224.127 489.477C228.448 492.482 213.225 490.608 213.225 490.608Z" fill="black"/>
<path opacity="0.1" d="M264.372 477.817C264.372 477.817 270.198 477.067 275.091 482.335C279.983 487.603 264.372 477.817 264.372 477.817Z" fill="black"/>
<g opacity="0.1">
<path opacity="0.1" d="M272.897 148.253C272.059 148.975 270.982 149.493 270.423 150.454C269.946 151.279 269.933 152.294 269.551 153.18C269.169 154.066 268.059 154.788 267.289 154.229C267.112 148.096 264.086 142.338 260.372 137.431C259.334 135.951 258.072 134.64 256.631 133.547C255.173 132.45 253.358 131.938 251.541 132.109C249.497 132.388 247.698 133.779 245.633 133.949C242.907 134.181 240.461 132.293 237.756 132.198C236.656 132.209 235.572 132.454 234.576 132.919C233.579 133.383 232.693 134.055 231.977 134.889C230.555 136.567 229.499 138.524 228.877 140.634C227.806 143.836 227.223 147.181 227.146 150.556C227.105 152.458 226.928 154.829 225.17 155.538C225.211 156.041 225.211 156.547 225.17 157.051C226.942 156.369 227.119 153.971 227.16 152.062C227.236 148.687 227.819 145.342 228.891 142.14C229.512 140.028 230.568 138.069 231.991 136.389C232.708 135.556 233.595 134.886 234.591 134.423C235.587 133.96 236.671 133.715 237.769 133.704C240.495 133.799 242.948 135.68 245.647 135.455C247.691 135.285 249.504 133.888 251.555 133.615C253.371 133.444 255.186 133.956 256.645 135.053C258.086 136.146 259.348 137.457 260.386 138.937C264.1 143.837 267.125 149.582 267.302 155.729C268.072 156.294 269.183 155.558 269.565 154.686C269.946 153.814 269.96 152.792 270.437 151.96C270.996 150.999 272.072 150.488 272.91 149.766C275.036 147.933 275.568 144.846 275.486 142.045C275.486 141.956 275.486 141.868 275.486 141.786C275.357 144.212 274.709 146.686 272.897 148.253Z" fill="black"/>
<path opacity="0.1" d="M222.594 147.769C221.027 146.045 218.887 144.893 217.449 143.067C216.239 141.45 215.547 139.504 215.466 137.486C215.252 140.008 215.956 142.522 217.449 144.566C218.887 146.399 221.027 147.551 222.594 149.275C224.099 150.962 225.002 153.099 225.163 155.354C225.267 153.982 225.094 152.603 224.652 151.299C224.211 149.996 223.511 148.795 222.594 147.769Z" fill="black"/>
<path opacity="0.1" d="M276.815 127.196C276.413 128.865 275.697 130.453 275.37 132.136C275.176 133.261 275.105 134.404 275.159 135.544C275.182 134.894 275.252 134.247 275.37 133.608C275.697 131.918 276.413 130.337 276.815 128.668C277.049 127.747 277.125 126.793 277.039 125.846C276.997 126.301 276.922 126.752 276.815 127.196Z" fill="black"/>
</g>
<path d="M681.198 321.461C681.198 321.461 669.948 265.486 674.255 258.521C674.255 258.521 674.411 252.047 674.152 243.795C674.152 243.481 674.152 243.168 674.152 242.847C674.91 243.352 675.7 243.808 676.517 244.21C680.485 246.249 685.04 246.837 689.396 245.873L685.989 242.077C685.171 241.171 684.319 240.19 684.142 238.99C683.965 237.791 684.456 236.721 684.878 235.651C688.115 227.473 688.285 217.19 682.05 210.948C676.783 205.701 675.502 198.927 669.785 194.136C665.607 190.627 663.311 185.481 661.144 180.507C659.311 176.302 657.464 172.063 656.415 167.607C655.597 164.124 655.27 160.519 654.146 157.119C653.022 153.718 650.916 150.413 647.625 148.894C646.453 148.355 645.151 148.048 644.081 147.333C642.678 146.386 641.833 144.846 640.817 143.496C635.659 136.682 618.385 140.695 610.208 143.462C607.985 144.159 605.926 145.3 604.157 146.815L604.232 146.692C604.293 146.59 604.368 146.488 604.436 146.386C603.541 147.11 602.768 147.972 602.147 148.941C600.954 150.829 600.457 153.03 599.462 155.074C598.262 157.494 591.591 164.247 594.46 166.966C594.661 167.149 594.891 167.296 595.141 167.402C596.218 167.85 597.404 167.969 598.549 167.743L598.426 168.036C597.446 170.435 596.944 173.002 596.947 175.593C596.947 186.79 606.181 195.867 617.581 195.867C619.724 195.869 621.855 195.54 623.898 194.893C623.945 195.151 623.986 195.41 624.034 195.669C624.034 195.772 624.068 195.874 624.082 195.976L623.72 196.48C623.702 196.449 623.682 196.42 623.659 196.392L612.961 211.343C611.325 212.495 601.908 219.309 601.377 224.42C600.818 230.015 600.259 236.564 600.259 236.564L600.184 237.968C599.716 238.359 599.17 238.643 598.581 238.802C597.993 238.961 597.378 238.99 596.777 238.888C593.438 238.343 593.438 251.154 593.438 251.154C593.438 251.154 591.216 253.199 589.69 251.427C588.164 249.655 584.13 255.659 584.13 255.659L558.849 256.749L558.27 256.783L556.907 252.565C556.76 252.12 556.444 251.751 556.027 251.538C555.609 251.325 555.125 251.285 554.679 251.427C554.573 251.462 554.47 251.505 554.372 251.556L554.277 251.611L554.099 251.734L554.011 251.815C553.962 251.86 553.916 251.908 553.874 251.958L553.793 252.054L553.752 252.095C553.594 252.312 553.49 252.564 553.448 252.829C553.405 253.094 553.425 253.365 553.507 253.621L554.679 257.24C549.8 258.221 544.812 260.988 548.88 268.607L528.26 264.797L534.931 270.399L569.37 277.507C568.913 278.324 569.213 279.51 570.637 281.18C576.77 288.383 587.946 290.339 592.443 290.843C593.631 293.5 595.114 296.015 596.866 298.339L596.477 305.515C596.477 305.515 585.09 360.209 583.005 362.983C584.058 361.79 585.021 360.522 585.888 359.187C582.583 370.425 577.963 385.805 576.75 388.109C574.801 391.789 572.995 406.679 575.217 407.633C575.898 407.926 577.847 407.783 580.627 407.571V408.805L580.505 455.547C580.505 455.547 581.063 484.216 579.53 486.949C577.997 489.681 577.588 495.412 577.588 495.412C577.588 495.412 571.455 506.718 566.597 511.263C566.564 511.299 566.527 511.331 566.488 511.359L566.338 510.296C566.338 510.296 560.498 517.669 547.578 517.253C547.578 517.253 539.803 522.31 551.333 522.582C562.862 522.855 577.588 522.174 577.588 522.174C577.588 522.174 587.871 506.5 596.484 508.544V520.422H599.121V508.353C600.344 507.548 601.391 506.503 602.198 505.281C603.005 504.06 603.555 502.687 603.816 501.246C604.042 499.761 603.876 498.242 603.336 496.84C602.796 495.439 601.9 494.202 600.736 493.252C600.213 492.779 599.794 492.204 599.504 491.561C599.214 490.918 599.061 490.223 599.053 489.518L598.957 489.6C598.957 489.361 598.896 489.116 598.869 488.863C598.113 482.73 597.165 470.075 600.511 460.712C605.097 447.873 606.487 429.992 603.148 419.347C602.071 415.945 601.186 412.484 600.497 408.982C600.416 408.539 600.341 408.117 600.273 407.721C602.555 408.03 604.815 408.485 607.039 409.084C614.773 411.217 631.693 411.612 646.139 411.497C646.173 411.892 646.214 412.308 646.262 412.723C646.519 415.613 647.058 418.47 647.87 421.255C649.683 426.707 650.514 450.742 650.514 450.742C650.514 450.742 652.851 470.505 651.577 478.546C650.896 483.017 650.214 487.507 649.826 492.019V492.107C649.826 492.107 645.996 503.011 643.195 508.933C643.127 509.083 643.052 509.233 642.984 509.376C642.238 509.444 641.503 509.606 640.797 509.859C640.797 509.859 637.042 517.356 633.301 518.596C629.56 519.836 630.8 523.918 639.27 522.419C647.741 520.92 660.531 519.693 660.531 519.693L661.083 512.047L663.686 508.79L663.004 516.415L665.778 515.87L665.41 506.595L669.669 501.266C669.669 501.266 674.813 496.687 667.168 487.678V487.875C667.086 487.746 667.011 487.61 666.923 487.48V487.439C665.655 485.477 664.647 481.817 666.493 475.323C669.832 463.588 671.774 452.937 671.774 452.937C671.774 452.937 679.229 424.404 670.268 410.904H670.664C669.745 409.004 669.096 406.986 668.735 404.907C668.69 404.661 668.649 404.409 668.613 404.15C675.243 403.769 681.75 402.569 687.059 399.98C687.038 399.953 683.842 332.242 681.198 321.461ZM597.022 274.236V274.372L595.659 274.44L597.022 274.236ZM592.348 274.883C592.124 274.933 591.914 275.033 591.734 275.176C591.148 276.005 590.781 276.968 590.665 277.977L588.538 277.5C588.538 277.5 587.046 277.18 584.9 276.818L583.884 275.796C586.678 275.564 589.581 275.224 592.348 274.883Z" fill="url(#paint1_linear)"/>
<path d="M662.691 506.691L661.88 516.347L664.599 515.802L664.19 505.328L662.691 506.691Z" fill="#1D2366"/>
<path d="M600.661 460.842C597.383 470.178 598.31 482.778 599.046 488.898C599.318 491.16 599.571 492.537 599.571 492.537C599.571 492.537 594.671 503.699 594.262 504.121C593.853 504.544 579.843 513.096 579.843 513.096L570.051 518.814C570.051 518.814 560.116 514.459 564.879 512.96C565.853 512.57 566.729 511.972 567.448 511.209C572.218 506.677 578.208 495.412 578.208 495.412C578.208 495.412 578.617 489.695 580.116 486.976C581.615 484.257 581.07 455.683 581.07 455.683L581.186 409.105V403.033L599.823 403.169C599.94 405.23 600.209 407.28 600.627 409.302C601.296 412.792 602.163 416.242 603.223 419.633C606.507 430.257 605.145 448.05 600.661 460.842Z" fill="#FFB0B1"/>
<path opacity="0.1" d="M599.571 492.537C599.571 492.537 594.671 503.699 594.262 504.121C593.853 504.544 579.843 513.096 579.843 513.096L570.051 518.814C570.051 518.814 560.116 514.459 564.879 512.96C565.853 512.57 566.729 511.972 567.448 511.209L567.871 514.187L571.135 514.05L599.073 488.911C599.319 491.16 599.571 492.537 599.571 492.537Z" fill="black"/>
<path d="M599.23 489.545L571.135 514.855L567.87 514.991L567.189 510.221C567.189 510.221 561.479 517.567 548.791 517.158C548.791 517.158 541.172 522.194 552.463 522.467C563.755 522.739 578.174 522.058 578.174 522.058C578.174 522.058 588.245 506.384 596.674 508.428V520.265H599.264V508.319C600.468 507.509 601.495 506.463 602.284 505.245C603.074 504.027 603.608 502.662 603.856 501.232C604.081 499.759 603.922 498.253 603.396 496.859C602.869 495.465 601.993 494.23 600.851 493.273C600.341 492.794 599.935 492.217 599.656 491.576C599.377 490.935 599.232 490.244 599.23 489.545Z" fill="#1D2366"/>
<path d="M665.28 475.398C663.468 481.872 664.456 485.518 665.696 487.473V487.514C667.287 489.929 668.393 492.63 668.953 495.467L669.062 496.08L656.279 514.719L649.342 517.444C649.342 517.444 638.187 513.635 640.224 512.545C640.735 512.279 641.533 510.861 642.446 508.906C645.171 503.011 648.933 492.135 648.933 492.135V492.046C649.328 487.555 649.955 483.078 650.65 478.621C651.897 470.6 649.607 450.913 649.607 450.913C649.607 450.913 648.79 426.973 647.018 421.528C646.218 418.76 645.686 415.921 645.43 413.051C645.062 409.643 644.981 406.836 644.981 406.836C644.981 406.836 652.326 396.614 665.791 407.653C666.868 408.534 667.815 409.562 668.606 410.706C677.907 423.94 670.418 453.094 670.418 453.094C670.418 453.094 668.544 463.697 665.28 475.398Z" fill="#FFB0B1"/>
<path opacity="0.1" d="M669.083 496.08L656.299 514.718L649.362 517.444C649.362 517.444 638.207 513.635 640.245 512.545C640.756 512.279 641.553 510.861 642.466 508.905C647.188 508.865 649.635 513.362 649.635 513.362L655.618 512.408C655.618 512.408 663.508 496.898 665.28 495.951C667.052 495.004 665.553 488.87 665.553 488.87V487.31C665.6 487.364 665.641 487.426 665.696 487.48V487.521C667.287 489.936 668.393 492.637 668.953 495.474L669.083 496.08Z" fill="black"/>
<path d="M650.044 513.764C650.044 513.764 646.636 507.509 640.108 509.819C640.108 509.819 636.436 517.315 632.763 518.528C629.09 519.741 630.316 523.83 638.616 522.337C646.916 520.845 659.427 519.611 659.427 519.611L659.972 511.986L668.408 501.239C668.408 501.239 673.437 496.68 665.955 487.705V489.266C665.955 489.266 667.454 495.399 665.682 496.346C663.911 497.293 656.047 512.81 656.047 512.81L650.044 513.764Z" fill="#1D2366"/>
<path opacity="0.1" d="M599.843 403.156C599.96 405.217 600.229 407.267 600.647 409.289C592.974 408.164 585.853 408.723 581.186 409.091V403.019L599.843 403.156Z" fill="black"/>
<path opacity="0.1" d="M669.362 412.403C669.362 412.403 658.459 412.935 645.458 413.044C645.09 409.636 645.008 406.829 645.008 406.829C645.008 406.829 652.354 396.607 665.818 407.646C666.895 408.527 667.843 409.555 668.633 410.699C668.844 411.28 669.087 411.849 669.362 412.403Z" fill="black"/>
<path d="M669.362 411.176C669.362 411.176 621.608 413.487 607.053 409.405C592.498 405.323 578.072 408.86 575.898 407.912C573.724 406.965 575.489 392.129 577.397 388.456C579.305 384.783 589.772 347.637 589.772 347.637L599.843 295.123L610.453 292.199L611.203 291.988L629.69 286.891L643.236 283.149C643.236 283.149 670.173 388.32 667.863 396.075C667.024 399.045 666.889 402.169 667.468 405.2C667.821 407.27 668.458 409.281 669.362 411.176Z" fill="#1D2366"/>
<path d="M564.737 259.209C564.737 259.209 555.197 269.431 562.42 275.129C569.643 280.826 574.392 275.674 574.392 275.674L564.737 259.209Z" fill="#C7DAF5"/>
<path opacity="0.1" d="M564.737 259.209C564.737 259.209 555.197 269.431 562.42 275.129C569.643 280.826 574.392 275.674 574.392 275.674L564.737 259.209Z" fill="black"/>
<path d="M641.812 192.003C641.812 192.003 640.694 193.066 639.011 194.634C636.613 196.876 633.063 200.153 629.914 202.9C625.553 206.696 621.955 209.483 623.243 207.104C624.531 204.726 624.286 200.583 623.645 196.705C623.598 196.446 623.557 196.187 623.509 195.935C622.979 193.087 622.275 190.275 621.403 187.512C621.403 187.512 628.449 178.408 632.347 174.817C633.798 173.454 634.814 172.895 634.875 173.842C634.943 175.116 635.897 177.931 637.083 180.916C637.117 181.011 637.151 181.1 637.192 181.195C637.982 183.239 638.875 185.338 639.659 187.151C640.858 189.932 641.812 192.003 641.812 192.003Z" fill="#FFB0B1"/>
<path opacity="0.1" d="M637.192 181.195C636.53 184.757 634.923 188.075 632.54 190.804C630.157 193.532 627.085 195.57 623.645 196.705C623.103 193.595 622.354 190.523 621.403 187.512C621.403 187.512 634.671 170.373 634.875 173.842C634.923 175.157 635.959 178.074 637.192 181.195Z" fill="black"/>
<path opacity="0.1" d="M622.323 201.285L624.04 198.865C624.04 198.865 625.178 205.803 629.362 202.743C633.546 199.683 633.751 225.77 633.751 225.77L629.26 292.915L596.811 290.972L597.73 258.528L601.403 242.173L610.487 218.396L615.89 210.539L622.323 201.285Z" fill="black"/>
<path d="M633.751 226.185L629.662 286.897L629.233 293.33L611.141 292.247L610.46 292.206L596.831 291.388L597.751 258.937L601.424 242.582L610.507 218.805L615.911 210.948L622.344 201.659L624.061 199.247C624.061 199.247 625.199 206.184 629.383 203.125L629.471 203.063C633.56 200.474 633.751 226.185 633.751 226.185Z" fill="#1D2366"/>
<path d="M601.881 236.898C601.881 236.898 600.252 240.306 596.981 239.754C593.711 239.202 593.717 252.02 593.717 252.02C593.717 252.02 591.544 254.064 590.044 252.293C588.545 250.521 584.593 256.511 584.593 256.511L559.83 257.601C559.83 257.601 570.849 262.637 568.689 277.875C568.689 277.875 606.099 275.558 607.325 272.021C608.552 268.484 601.881 236.898 601.881 236.898Z" fill="white"/>
<path opacity="0.03" d="M601.881 236.898C601.881 236.898 600.252 240.306 596.981 239.754C593.711 239.202 593.717 252.02 593.717 252.02C593.717 252.02 591.544 254.064 590.044 252.293C588.545 250.521 584.593 256.511 584.593 256.511L559.83 257.601C559.83 257.601 570.849 262.637 568.689 277.875C568.689 277.875 606.099 275.558 607.325 272.021C608.552 268.484 601.881 236.898 601.881 236.898Z" fill="black"/>
<path d="M529.916 265.608L536.444 271.183L590.181 282.475L583.517 275.674L529.916 265.608Z" fill="white"/>
<path d="M622.426 203.431C621.533 204.794 618.978 211.772 616.845 217.865C615.066 222.942 613.581 227.405 613.581 227.405C613.581 227.405 610.113 249.989 608.341 254.071C606.569 258.153 607.53 274.072 607.53 274.072L600.927 313.386C600.927 313.386 597.936 333.66 593.315 345.769C588.757 357.688 583.68 363.276 583.523 363.453C585.568 360.686 596.709 306.21 596.709 306.21L600.389 237.505C600.389 237.505 600.927 230.976 601.472 225.395C602.017 219.814 613.056 212.195 613.056 212.195L623.7 197.06C624.77 198.491 624.054 200.985 622.426 203.431Z" fill="white"/>
<path d="M594.672 291.729C594.672 291.729 578.999 291.048 571.408 281.93C563.817 272.812 588.955 278.291 588.955 278.291L595.489 279.79L594.672 291.729Z" fill="#FFB0B1"/>
<path opacity="0.1" d="M667.863 396.082C667.024 399.052 666.889 402.176 667.468 405.207C650.371 406.42 632.081 401.799 632.081 401.799C628.674 404.934 619.7 409.555 619.7 409.555L614.807 348.904C611.68 340.726 610.453 297.883 610.453 297.883C610.453 297.883 610.733 295.641 611.135 292.281C611.135 292.199 611.135 292.111 611.169 292.029C612.388 282.645 614.807 265.029 615.993 262.651C617.628 259.38 610.964 250.677 610.964 250.677L613.996 224.816L614.364 221.695C620.756 218.839 625.656 209.721 625.656 209.721L629.417 203.132C633.506 200.508 633.717 226.22 633.717 226.22L629.628 286.931L643.175 283.19C643.175 283.19 670.173 388.327 667.863 396.082Z" fill="black"/>
<path d="M685.409 400.273C666.772 409.527 632.899 400.954 632.899 400.954C629.492 404.089 620.517 408.71 620.517 408.71L615.618 348.059C612.497 339.881 611.271 297.038 611.271 297.038C611.271 297.038 615.209 265.07 616.845 261.806C617.322 260.852 617.09 259.434 616.524 257.908C613.744 250.642 612.721 242.822 613.54 235.086L614.848 223.971L615.209 220.857C621.608 217.994 626.507 208.876 626.507 208.876L629.914 202.907L636.183 191.908L639.154 186.701L639.659 187.158L643.509 190.647C643.509 190.647 645.144 192.01 647.597 194.054C652.933 198.552 662.152 206.471 666.909 211.316C671.093 215.582 672.415 232.176 672.796 244.667C673.048 252.892 672.898 259.339 672.898 259.339C668.68 266.283 679.713 322.034 679.713 322.034C682.282 332.808 685.409 400.273 685.409 400.273Z" fill="white"/>
<path opacity="0.03" d="M649.635 208.74C649.635 208.74 636.845 233.089 638.33 242.343C639.816 251.597 644.04 262.072 642.003 264.518C641.303 265.445 640.398 266.197 639.359 266.716C638.32 267.235 637.175 267.507 636.013 267.51C633.969 267.646 628.518 271.455 628.518 271.864C628.518 272.273 623.482 272.273 618.978 274.181C614.473 276.089 607.823 277.173 607.823 277.173C607.823 277.173 594.876 276.764 593.67 277.991C592.463 279.217 591.223 286.557 593.806 292.41C596.388 298.264 599.257 302.632 601.424 303.43C603.591 304.227 617.342 299.62 628.497 298.53C639.652 297.44 651.761 288.601 651.761 288.601C651.761 288.601 665.096 283.831 667.434 275.81C669.771 267.789 664.578 223.705 664.578 223.705C664.578 223.705 660.653 203.159 649.635 208.74Z" fill="black"/>
<path opacity="0.03" d="M648 206.696C648 206.696 635.209 231.051 636.709 240.299C638.208 249.546 642.419 260.027 640.375 262.48C639.677 263.408 638.774 264.162 637.735 264.681C636.697 265.2 635.553 265.471 634.392 265.472C632.348 265.608 626.896 269.418 626.896 269.827C626.896 270.236 621.86 270.236 617.356 272.137C612.852 274.038 606.201 275.128 606.201 275.128C606.201 275.128 593.254 274.72 592.055 275.946C590.856 277.173 589.602 284.519 592.191 290.366C594.781 296.213 597.643 300.588 599.81 301.385C601.976 302.183 615.728 297.576 626.883 296.492C638.037 295.409 650.146 286.557 650.146 286.557C650.146 286.557 663.475 281.786 665.785 273.772C668.095 265.758 662.93 221.661 662.93 221.661C662.93 221.661 659.018 201.121 648 206.696Z" fill="black"/>
<path d="M649.232 207.513C649.232 207.513 636.442 231.869 637.941 241.116C639.44 250.364 643.652 260.845 641.614 263.291C640.917 264.221 640.012 264.976 638.973 265.497C637.933 266.017 636.787 266.289 635.624 266.29C633.58 266.426 628.129 270.235 628.129 270.637C628.129 271.04 623.1 271.046 618.589 272.954C614.078 274.863 607.434 275.946 607.434 275.946C607.434 275.946 594.487 275.537 593.281 276.764C592.075 277.991 590.835 285.337 593.417 291.184C596 297.031 598.869 301.406 601.035 302.203C603.202 303 616.953 298.394 628.108 297.303C639.263 296.213 651.372 287.374 651.372 287.374C651.372 287.374 664.708 282.604 667.045 274.583C669.382 266.562 664.224 222.478 664.224 222.478C664.224 222.478 660.244 201.966 649.232 207.513Z" fill="white"/>
<path opacity="0.1" d="M648.953 272.839C648.953 272.839 638.732 270.794 642.289 274.202C645.846 277.609 645.825 280.594 650.18 280.457C654.534 280.321 648.953 272.839 648.953 272.839Z" fill="black"/>
<path opacity="0.1" d="M666.227 346.151C666.227 346.151 661.607 349.279 670.446 356.489C679.284 363.699 666.227 346.151 666.227 346.151Z" fill="black"/>
<path opacity="0.1" d="M657.41 371.863C657.41 372.271 655.775 386.855 661.894 390.501C668.013 394.146 657.41 371.863 657.41 371.863Z" fill="black"/>
<path d="M560.253 257.567C555.319 257.738 544.662 259.244 550.188 269.554C555.074 278.679 563.285 272.58 567.905 267.953C566.778 263.639 564.039 259.921 560.253 257.567Z" fill="#FFB0B1"/>
<path d="M567.967 267.871L568.171 267.66L567.967 267.871Z" fill="#FFB0B1"/>
<path opacity="0.1" d="M647.598 194.47C642.365 198.048 637.976 201.067 637.118 201.694C634.773 203.431 630.303 213.633 627.421 218.839C625.125 223.03 617.663 224.107 614.849 224.373L615.21 221.259C621.608 218.396 626.508 209.278 626.508 209.278L639.155 187.104L643.509 191.063C643.509 191.063 645.145 192.426 647.598 194.47Z" fill="black"/>
<path d="M647.598 194.061C642.365 197.639 637.976 200.658 637.118 201.292C634.773 203.023 630.303 213.224 627.421 218.43C625.125 222.622 617.663 223.698 614.849 223.964L615.21 220.85C621.608 217.988 626.508 208.87 626.508 208.87L639.155 186.695L643.509 190.64C643.509 190.64 645.145 191.99 647.598 194.061Z" fill="#DCE7FF"/>
<path d="M637.526 176.697C637.528 180.788 636.288 184.783 633.968 188.153C631.229 192.137 627.153 195.007 622.478 196.242C617.804 197.478 612.842 196.996 608.492 194.886C604.142 192.775 600.693 189.175 598.77 184.739C596.848 180.303 596.579 175.324 598.013 170.707C599.447 166.089 602.488 162.139 606.585 159.572C610.682 157.005 615.564 155.992 620.344 156.717C625.124 157.442 629.486 159.856 632.638 163.522C635.791 167.188 637.525 171.862 637.526 176.697Z" fill="#FFB0B1"/>
<path opacity="0.1" d="M672.797 244.674C670.029 242.971 667.776 240.55 666.276 237.668C665.138 235.419 664.381 232.823 662.439 231.228C660.688 229.797 658.351 229.45 656.17 228.809C649.001 226.69 642.991 220.148 642.766 212.679C642.657 209.162 643.754 205.653 643.257 202.171C642.974 200.2 642.191 198.334 640.981 196.753C640.381 195.997 639.722 195.288 639.012 194.634C638.058 193.734 637.056 192.862 636.184 191.908C635.634 191.317 635.154 190.665 634.753 189.966C634.429 189.393 634.166 188.788 633.969 188.16C632.606 183.989 633.847 179.042 632.347 174.823L632.266 174.592C631.7 173.092 630.548 171.593 628.947 171.477C627.346 171.362 625.976 172.69 624.45 173.283C621.254 174.524 617.806 172.411 615.142 170.258C612.477 168.104 609.472 165.644 606.085 166.121C603.844 166.441 602.072 167.968 600.007 168.758C599.541 168.939 599.06 169.078 598.569 169.174C600.317 164.816 603.527 161.203 607.649 158.955C611.771 156.707 616.547 155.965 621.156 156.856C625.766 157.747 629.921 160.215 632.909 163.837C635.896 167.46 637.529 172.009 637.526 176.704C637.529 178.122 637.38 179.536 637.083 180.923C637.117 181.018 637.151 181.107 637.192 181.202C637.983 183.246 638.875 185.345 639.659 187.158L643.509 190.647C643.509 190.647 645.145 192.01 647.598 194.054C652.933 198.552 662.153 206.471 666.909 211.316C671.093 215.596 672.401 232.182 672.797 244.674Z" fill="black"/>
<path d="M599.769 156.308C600.743 154.325 601.227 152.103 602.392 150.223C604.103 147.497 607.087 145.752 610.154 144.696C618.16 141.936 635.08 137.929 640.136 144.696C641.131 146.059 641.956 147.572 643.332 148.512C644.382 149.228 645.649 149.534 646.801 150.073C650.024 151.586 652.082 154.884 653.179 158.25C654.276 161.617 654.603 165.228 655.407 168.697C656.436 173.147 658.242 177.365 660.041 181.556C662.16 186.504 664.409 191.635 668.497 195.131C674.078 199.901 675.311 206.655 680.49 211.888C686.623 218.103 686.425 228.36 683.264 236.503C682.848 237.573 682.378 238.691 682.541 239.829C682.705 240.967 683.55 242.002 684.347 242.909L687.7 246.691C679.768 248.606 670.793 244.463 667.1 237.191C665.962 234.942 665.206 232.353 663.257 230.751C661.513 229.32 659.168 228.98 656.995 228.339C649.826 226.213 643.816 219.664 643.591 212.195C643.482 208.686 644.579 205.176 644.082 201.701C643.805 199.716 643.018 197.838 641.799 196.249C639.925 193.802 637.097 192.16 635.571 189.434C632.988 184.875 634.951 178.953 633.09 174.06C632.518 172.561 631.373 171.062 629.772 170.946C628.17 170.83 626.801 172.159 625.268 172.752C622.079 173.992 618.631 171.886 615.966 169.726C613.302 167.566 610.297 165.113 606.903 165.596C604.661 165.91 602.896 167.436 600.832 168.234C599.305 168.82 596.212 169.345 594.876 168.057C592.055 165.46 598.59 158.734 599.769 156.308Z" fill="#591D4B"/>
<path opacity="0.1" d="M668.994 234.942C667.849 232.694 667.1 230.104 665.151 228.509C663.406 227.078 661.062 226.731 658.882 226.09C651.72 223.971 645.71 217.422 645.478 209.953C645.369 206.444 646.466 202.927 645.975 199.452C645.69 197.48 644.904 195.615 643.693 194.034C641.812 191.588 638.984 189.945 637.464 187.219C634.882 182.667 636.844 176.745 634.977 171.845C634.412 170.353 633.26 168.854 631.666 168.731C630.071 168.609 628.688 169.951 627.161 170.544C623.972 171.784 620.518 169.672 617.86 167.518C615.202 165.365 612.184 162.905 608.797 163.382C606.555 163.702 604.783 165.228 602.726 166.019C601.199 166.605 598.099 167.137 596.763 165.849C593.956 163.123 600.491 156.41 601.663 153.998C602.637 152.008 603.121 149.793 604.293 147.912C604.354 147.81 604.422 147.708 604.49 147.606C603.614 148.332 602.857 149.192 602.249 150.154C601.083 152.035 600.6 154.243 599.625 156.24C598.446 158.652 591.911 165.385 594.726 168.091C596.089 169.385 599.155 168.854 600.681 168.268C602.726 167.47 604.511 165.944 606.753 165.63C610.16 165.147 613.158 167.607 615.816 169.76C618.473 171.914 621.949 174.026 625.124 172.786C626.65 172.193 627.986 170.857 629.621 170.98C631.257 171.103 632.347 172.595 632.94 174.094C634.8 178.987 632.838 184.909 635.42 189.468C636.947 192.146 639.775 193.823 641.648 196.283C642.868 197.872 643.654 199.751 643.931 201.735C644.429 205.21 643.332 208.72 643.441 212.229C643.665 219.725 649.676 226.247 656.844 228.373C659.004 229.014 661.362 229.354 663.106 230.785C665.062 232.387 665.832 234.976 666.95 237.225C670.643 244.497 679.617 248.64 687.549 246.725L685.968 244.94C679.093 245.042 672.135 241.13 668.994 234.942Z" fill="black"/>
<path opacity="0.1" d="M622.017 203.84C621.124 205.203 618.569 212.181 616.436 218.274C614.44 217.497 612.627 212.543 612.627 212.543L623.271 197.4C624.361 198.9 623.645 201.387 622.017 203.84Z" fill="black"/>
<path d="M622.425 203.431C621.532 204.794 618.977 211.772 616.844 217.865C614.848 217.095 613.035 212.134 613.035 212.134L623.679 196.998C624.769 198.491 624.054 200.985 622.425 203.431Z" fill="#DCE7FF"/>
<path d="M560.539 273.05L554.638 254.439C554.568 254.221 554.542 253.992 554.561 253.764C554.58 253.536 554.644 253.314 554.749 253.11C554.854 252.907 554.998 252.727 555.173 252.579C555.348 252.432 555.551 252.321 555.769 252.252C556.208 252.115 556.684 252.156 557.092 252.368C557.5 252.58 557.809 252.945 557.949 253.383L563.851 271.973L563.265 275.864L560.539 273.05Z" fill="#BE8B87"/>
<path opacity="0.1" d="M555.196 252.804C555.636 252.665 556.114 252.705 556.524 252.917C556.933 253.129 557.243 253.495 557.384 253.935L563.285 272.525L562.842 275.442L563.271 275.892L563.857 272.001L557.922 253.41C557.781 252.972 557.473 252.608 557.064 252.396C556.656 252.184 556.18 252.142 555.741 252.279C555.372 252.399 555.053 252.639 554.835 252.96C554.951 252.898 555.072 252.846 555.196 252.804Z" fill="white"/>
<path d="M560.539 273.05L563.851 272L563.367 275.19L563.265 275.892L562.297 274.883L560.539 273.05Z" fill="#EFC8C4"/>
<path d="M562.297 274.883C562.354 274.81 562.426 274.75 562.508 274.706C562.556 274.676 562.612 274.66 562.668 274.66C562.725 274.66 562.78 274.676 562.828 274.706C562.875 274.762 562.914 274.824 562.944 274.89C562.989 274.965 563.051 275.029 563.124 275.078C563.197 275.126 563.28 275.157 563.367 275.169L563.264 275.851L562.297 274.883Z" fill="#727A9C"/>
<path d="M554.604 261.049C554.604 261.049 566.44 260.981 563.653 266.017C560.866 271.053 556.511 271.66 556.511 271.66L554.604 261.049Z" fill="#FFB0B1"/>
<path d="M432.707 307.913H351.805V398.444H432.707V307.913Z" fill="#CCCCCC"/>
<path d="M393.323 509.018L391.933 528.034C391.87 528.894 391.992 529.758 392.29 530.568C392.588 531.378 393.056 532.115 393.662 532.729C394.268 533.343 394.998 533.82 395.804 534.128C396.609 534.437 397.471 534.57 398.332 534.517L408.091 533.926C408.544 533.898 408.984 533.771 409.382 533.554C409.78 533.337 410.125 533.035 410.393 532.669C410.66 532.304 410.845 531.884 410.932 531.439C411.019 530.994 411.007 530.535 410.898 530.095L405.48 508.41L393.323 509.018Z" fill="white"/>
<path d="M474.958 520.263C486.444 522.952 494.65 526.774 500.04 531.946C501.96 533.775 504.471 534.852 507.118 534.983C510.499 535.161 513.263 534.782 515.34 533.853H515.341C515.873 533.618 516.332 533.245 516.672 532.773C517.011 532.3 517.218 531.745 517.271 531.166C517.334 530.577 517.238 529.982 516.994 529.443C516.75 528.904 516.366 528.44 515.882 528.099L488.64 508.701L477.069 513.334L474.37 516.035C474.077 516.328 473.857 516.684 473.725 517.076C473.594 517.469 473.555 517.886 473.612 518.296C473.67 518.705 473.821 519.096 474.054 519.437C474.288 519.779 474.597 520.061 474.958 520.263H474.958Z" fill="#E6E6E6"/>
<path d="M439.609 209.797L361.741 209.076C361.937 197.726 364.576 186.58 370.344 176.607C374.132 170.057 374.05 162.928 373.137 156.922C371.729 147.654 375.005 138.172 382.285 132.272C387.848 127.756 394.87 125.431 402.027 125.735L403.539 125.798C408.464 126.003 413.259 127.443 417.483 129.985C421.707 132.528 425.225 136.092 427.714 140.349C430.244 144.895 431.265 150.127 430.628 155.291C430.134 160.15 431.315 165.058 434.078 170.013C438.844 180.893 439.876 194.816 439.609 209.797Z" fill="#2F2E41"/>
<path d="M491.706 509.713L476.424 513.703L402.006 351.457L406.657 509.713H391.374C375.044 435.258 345.561 349.329 358.816 322.2L437.886 317.545L491.706 509.713Z" fill="#332DA0"/>
<path d="M401.341 182.562C412.717 182.562 421.939 173.333 421.939 161.949C421.939 150.564 412.717 141.335 401.341 141.335C389.965 141.335 380.743 150.564 380.743 161.949C380.743 173.333 389.965 182.562 401.341 182.562Z" fill="#FFB9B9"/>
<path d="M419.282 199.85L385.395 197.856C388.716 190.228 390.042 182.882 388.717 175.913H413.966C413.909 181.264 416.57 190.521 419.282 199.85Z" fill="#FFB9B9"/>
<path d="M440.543 323.529L366.125 328.849L373.766 196.858L386.723 193.201L401.34 196.526L415.958 189.211L425.26 192.536L440.543 323.529Z" fill="#332DA0"/>
<path d="M378.749 418.616L327.919 406.98C343.033 356.821 370.263 242.073 361.474 201.18L388.052 189.211L378.749 418.616Z" fill="white"/>
<path d="M354.165 273.659L334.896 261.69L351.329 213.525C353.161 208.555 356.672 204.382 361.253 201.728L366.789 198.521L363.467 247.061L354.165 273.659Z" fill="#E6E6E6"/>
<path d="M484.729 407.645C468.686 416.933 428.583 422.111 410.975 415.624C409.679 370.305 407.138 242.115 415.294 187.881L444.53 199.85L441.872 235.757C427.895 266.473 468.481 373.459 484.729 407.645Z" fill="white"/>
<path d="M482.404 267.675L464.463 261.69L440.543 234.427L444.53 199.85L484.397 255.705L482.404 267.675Z" fill="white"/>
<path d="M426.18 293.556C426.473 294.845 427.266 295.965 428.383 296.671C429.5 297.376 430.852 297.609 432.141 297.319L447.37 293.868L445.169 284.14L429.94 287.591C428.651 287.883 427.53 288.676 426.825 289.794C426.12 290.913 425.888 292.266 426.18 293.556Z" fill="#FFB9B9"/>
<path d="M419.281 156.629C407.84 151.921 396.541 151.58 385.394 155.964L380.743 139.341H423.268L419.281 156.629Z" fill="#2F2E41"/>
<path d="M439.879 282.303L448.517 298.262C463.045 294.207 475.637 281.422 487.719 266.345L484.397 255.706L463.799 261.025L439.879 282.303Z" fill="white"/>
<path d="M433.567 249.388H430.909C430.909 211.77 423.169 185.554 415.626 185.554L414.962 182.894C421.726 182.894 426.039 193.805 428.465 202.958C431.755 215.367 433.567 231.856 433.567 249.388Z" fill="#3F3D56"/>
<path d="M372.437 240.079H369.779C369.779 205.627 377.573 184.224 389.048 184.224L388.384 186.884C380.446 186.884 372.437 203.333 372.437 240.079Z" fill="#3F3D56"/>
<path d="M432.238 256.703C435.908 256.703 438.883 253.726 438.883 250.053C438.883 246.381 435.908 243.404 432.238 243.404C428.569 243.404 425.594 246.381 425.594 250.053C425.594 253.726 428.569 256.703 432.238 256.703Z" fill="#3F3D56"/>
<path d="M361.806 256.038H359.148C359.148 246.505 364.514 238.75 371.109 238.75V241.409C365.979 241.409 361.806 247.972 361.806 256.038Z" fill="#3F3D56"/>
<path d="M383.068 256.038H380.411C380.411 247.972 376.238 241.409 371.108 241.409V238.75C377.703 238.75 383.068 246.505 383.068 256.038Z" fill="#3F3D56"/>
<path d="M381.74 259.363C383.208 259.363 384.398 258.172 384.398 256.703C384.398 255.234 383.208 254.043 381.74 254.043C380.272 254.043 379.082 255.234 379.082 256.703C379.082 258.172 380.272 259.363 381.74 259.363Z" fill="#3F3D56"/>
<path d="M360.477 259.363C361.945 259.363 363.135 258.172 363.135 256.703C363.135 255.234 361.945 254.043 360.477 254.043C359.009 254.043 357.819 255.234 357.819 256.703C357.819 258.172 359.009 259.363 360.477 259.363Z" fill="#3F3D56"/>
<path d="M327.255 232.245L343.838 235.208L381.74 289.141L361.604 284.399L327.255 232.245Z" fill="#332DA0"/>
<path d="M324.313 231.584C324.06 231.588 323.813 231.66 323.598 231.792C323.382 231.924 323.206 232.112 323.088 232.335C322.97 232.559 322.913 232.81 322.925 233.062C322.937 233.315 323.017 233.56 323.156 233.771L358.585 287.566C358.782 287.866 359.088 288.08 359.438 288.162L375.922 292.043C376.2 292.109 376.491 292.088 376.757 291.984C377.023 291.88 377.251 291.698 377.411 291.461C377.571 291.224 377.655 290.944 377.653 290.659C377.65 290.373 377.561 290.095 377.396 289.861L338.497 234.511C338.392 234.36 338.258 234.231 338.103 234.133C337.948 234.034 337.774 233.966 337.593 233.934L324.579 231.609C324.491 231.593 324.402 231.585 324.313 231.584Z" fill="#3F3D56"/>
<path d="M346.414 270.047L347.399 279.972L362.937 278.429C364.252 278.298 365.461 277.65 366.299 276.627C367.137 275.604 367.534 274.29 367.404 272.974C367.273 271.657 366.625 270.447 365.603 269.609C364.581 268.77 363.268 268.373 361.952 268.503L346.414 270.047Z" fill="#FFB9B9"/>
<path d="M332.903 268.897C332.926 272.282 334.284 275.52 336.682 277.906C339.08 280.293 342.323 281.634 345.705 281.638H348.26L350.12 266.126L334.72 260.578L332.903 268.897Z" fill="#E6E6E6"/>
</g>
<defs>
<linearGradient id="paint0_linear" x1="242.812" y1="528.048" x2="242.812" y2="108.714" gradientUnits="userSpaceOnUse">
<stop stop-color="#808080" stop-opacity="0.25"/>
<stop offset="0.54" stop-color="#808080" stop-opacity="0.12"/>
<stop offset="1" stop-color="#808080" stop-opacity="0.1"/>
</linearGradient>
<linearGradient id="paint1_linear" x1="152104" y1="316393" x2="152104" y2="101145" gradientUnits="userSpaceOnUse">
<stop stop-color="#808080" stop-opacity="0.25"/>
<stop offset="0.54" stop-color="#808080" stop-opacity="0.12"/>
<stop offset="1" stop-color="#808080" stop-opacity="0.1"/>
</linearGradient>
<clipPath id="clip0">
<rect width="753" height="533.411" fill="white"/>
</clipPath>
</defs>
</svg>
