<svg width="606" height="624" viewBox="0 0 606 624" fill="none" xmlns="http://www.w3.org/2000/svg">
<path d="M261.693 289.38H151.636V422.193H261.693V289.38Z" fill="#CCCCCC"/>
<path d="M208.115 584.41L206.224 612.306C206.138 613.569 206.304 614.837 206.71 616.025C207.115 617.213 207.752 618.293 208.576 619.194C209.4 620.095 210.394 620.795 211.489 621.248C212.585 621.7 213.757 621.895 214.928 621.818L228.205 620.95C228.82 620.91 229.42 620.724 229.961 620.405C230.502 620.087 230.971 619.644 231.336 619.107C231.7 618.571 231.951 617.954 232.069 617.302C232.188 616.649 232.172 615.976 232.023 615.331L224.653 583.517L208.115 584.41Z" fill="#DCE7FF"/>
<path d="M319.168 600.906C334.794 604.851 345.956 610.458 353.289 618.047C355.9 620.729 359.317 622.309 362.917 622.501C367.516 622.762 371.276 622.206 374.102 620.844H374.103C374.827 620.499 375.452 619.952 375.914 619.259C376.376 618.566 376.657 617.752 376.729 616.902C376.815 616.038 376.685 615.165 376.352 614.374C376.02 613.583 375.498 612.902 374.84 612.402L337.781 583.945L322.039 590.741L318.367 594.704C317.97 595.133 317.67 595.656 317.491 596.232C317.313 596.807 317.26 597.419 317.338 598.02C317.415 598.621 317.621 599.195 317.938 599.695C318.256 600.196 318.677 600.61 319.168 600.906H319.168Z" fill="#DCE7FF"/>
<path d="M271.081 145.44L165.152 144.382C165.419 127.731 169.008 111.38 176.855 96.7485C182.009 87.1391 181.897 76.6812 180.655 67.8705C178.739 54.274 183.195 40.3627 193.099 31.7075C200.667 25.0816 210.219 21.6709 219.955 22.1177L222.012 22.2102C228.712 22.5106 235.235 24.6228 240.981 28.3527C246.727 32.0827 251.514 37.3108 254.9 43.5572C258.342 50.2254 259.73 57.902 258.863 65.4774C258.192 72.6053 259.798 79.8059 263.556 87.075C270.04 103.037 271.443 123.462 271.081 145.44Z" fill="#2F2E41"/>
<path d="M341.952 585.429L321.163 591.282L219.926 353.261L226.254 585.429H205.464C183.249 476.201 143.141 350.139 161.173 310.339L268.737 303.511L341.952 585.429Z" fill="#332DA0"/>
<path d="M219.023 105.485C234.498 105.485 247.043 91.9457 247.043 75.2443C247.043 58.543 234.498 45.0039 219.023 45.0039C203.547 45.0039 191.002 58.543 191.002 75.2443C191.002 91.9457 203.547 105.485 219.023 105.485Z" fill="#FFB9B9"/>
<path d="M243.428 130.848L197.329 127.921C201.847 116.731 203.652 105.955 201.849 95.7297H236.197C236.119 103.58 239.739 117.161 243.428 130.848Z" fill="#FFB9B9"/>
<path d="M272.353 312.29L171.117 320.094L181.512 126.458L199.138 121.093L219.023 125.97L238.908 115.239L251.563 120.118L272.353 312.29Z" fill="#332DA0"/>
<path d="M188.29 451.786L119.143 434.715C139.704 361.13 176.746 192.79 164.789 132.799L200.945 115.24L188.29 451.786Z" fill="white"/>
<path d="M154.846 239.128L128.633 221.569L150.988 150.909C153.481 143.618 158.257 137.496 164.489 133.602L172.02 128.897L167.5 200.108L154.846 239.128Z" fill="white"/>
<path d="M332.462 435.691C310.637 449.318 256.083 456.914 232.129 447.397C230.367 380.912 226.91 192.851 238.005 113.289L277.776 130.848L274.161 183.525C255.147 228.587 310.359 385.539 332.462 435.691Z" fill="white"/>
<path d="M329.298 230.349L304.892 221.569L272.353 181.573L277.776 130.847L332.009 212.79L329.298 230.349Z" fill="white"/>
<path d="M252.813 268.318C253.212 270.209 254.29 271.852 255.81 272.887C257.33 273.922 259.169 274.264 260.922 273.838L281.639 268.775L278.645 254.504L257.928 259.566C256.174 259.995 254.65 261.158 253.691 262.799C252.732 264.44 252.416 266.425 252.813 268.318Z" fill="#FFB9B9"/>
<path d="M243.428 67.4403C227.864 60.5335 212.493 60.0337 197.329 66.4648L191.002 42.0774H248.851L243.428 67.4403Z" fill="#2F2E41"/>
<path d="M271.448 251.809L283.199 275.221C302.963 269.272 320.092 250.517 336.529 228.397L332.009 212.789L303.988 220.593L271.448 251.809Z" fill="white"/>
<path d="M262.862 203.522H259.246C259.246 148.334 248.717 109.874 238.457 109.874L237.553 105.972C246.755 105.972 252.621 121.979 255.922 135.407C260.397 153.612 262.862 177.802 262.862 203.522Z" fill="#3F3D56"/>
<path d="M179.704 189.865H176.088C176.088 139.322 186.69 107.923 202.301 107.923L201.397 111.825C190.599 111.825 179.704 135.956 179.704 189.865Z" fill="#3F3D56"/>
<path d="M261.054 214.253C266.046 214.253 270.093 209.885 270.093 204.498C270.093 199.11 266.046 194.743 261.054 194.743C256.062 194.743 252.015 199.11 252.015 204.498C252.015 209.885 256.062 214.253 261.054 214.253Z" fill="#3F3D56"/>
<path d="M165.241 213.277H161.625C161.625 199.292 168.924 187.914 177.895 187.914V191.816C170.917 191.816 165.241 201.444 165.241 213.277Z" fill="#3F3D56"/>
<path d="M194.166 213.277H190.55C190.55 201.444 184.873 191.816 177.896 191.816V187.914C186.867 187.914 194.166 199.292 194.166 213.277Z" fill="#3F3D56"/>
<path d="M192.358 218.155C194.355 218.155 195.973 216.408 195.973 214.253C195.973 212.098 194.355 210.351 192.358 210.351C190.361 210.351 188.742 212.098 188.742 214.253C188.742 216.408 190.361 218.155 192.358 218.155Z" fill="#3F3D56"/>
<path d="M163.433 218.155C165.43 218.155 167.049 216.408 167.049 214.253C167.049 212.098 165.43 210.351 163.433 210.351C161.436 210.351 159.817 212.098 159.817 214.253C159.817 216.408 161.436 218.155 163.433 218.155Z" fill="#3F3D56"/>
<path d="M118.238 178.372L140.797 182.719L192.358 261.84L164.966 254.885L118.238 178.372Z" fill="#332DA0"/>
<path d="M114.237 177.403C113.894 177.408 113.558 177.514 113.264 177.707C112.971 177.901 112.732 178.176 112.571 178.504C112.41 178.832 112.334 179.201 112.35 179.571C112.366 179.942 112.474 180.301 112.663 180.611L160.859 259.529C161.128 259.971 161.544 260.284 162.02 260.404L184.445 266.098C184.823 266.194 185.219 266.164 185.581 266.012C185.942 265.859 186.253 265.591 186.47 265.244C186.688 264.897 186.802 264.486 186.799 264.067C186.795 263.648 186.674 263.24 186.45 262.897L133.533 181.696C133.39 181.475 133.207 181.286 132.996 181.141C132.785 180.996 132.55 180.897 132.303 180.85L114.599 177.438C114.48 177.415 114.359 177.403 114.237 177.403Z" fill="#3F3D56"/>
<path d="M144.302 233.829L145.641 248.39L166.779 246.125C168.568 245.934 170.213 244.983 171.353 243.482C172.492 241.981 173.033 240.053 172.855 238.122C172.678 236.191 171.797 234.416 170.406 233.186C169.015 231.956 167.229 231.373 165.44 231.564L144.302 233.829Z" fill="#FFB9B9"/>
<path d="M125.922 232.142C125.953 237.107 127.8 241.858 131.062 245.359C134.325 248.86 138.737 250.828 143.337 250.834H146.813L149.343 228.077L128.393 219.937L125.922 232.142Z" fill="white"/>
</svg>
